<?xml version="1.0" encoding="UTF-8"?>
<!DOCTYPE svg PUBLIC "-//W3C//DTD SVG 1.1//EN" "http://www.w3.org/Graphics/SVG/1.1/DTD/svg11.dtd">
<!-- Creator: CorelDRAW 2020 (64-Bit) -->
<svg xmlns="http://www.w3.org/2000/svg" xml:space="preserve" width="55.5334mm" height="47.4048mm" version="1.1" style="shape-rendering:geometricPrecision; text-rendering:geometricPrecision; image-rendering:optimizeQuality; fill-rule:evenodd; clip-rule:evenodd"
viewBox="0 0 202.02 172.45"
 xmlns:xlink="http://www.w3.org/1999/xlink"
 xmlns:xodm="http://www.corel.com/coreldraw/odm/2003">
 <defs>
  <style type="text/css">
   <![CDATA[
    .fil0 {fill:#718FC8}
    .fil2 {fill:#1C2C5D}
    .fil1 {fill:#243B7E}
   ]]>
  </style>
   <mask id="id0">
  <linearGradient id="id1" gradientUnits="userSpaceOnUse" x1="148.25" y1="151.65" x2="183.75" y2="83.99">
   <stop offset="0" style="stop-opacity:0; stop-color:white"/>
   <stop offset="1" style="stop-opacity:1; stop-color:white"/>
  </linearGradient>
    <rect style="fill:url(#id1)" x="139.03" y="94.11" width="38.22" height="71.84"/>
   </mask>
 </defs>
 <g id="Layer_x0020_1">
  <metadata id="CorelCorpID_0Corel-Layer"/>
  <path class="fil0" d="M183.75 83.99l6.44 79.99c0.4,5.56 -3.19,8.56 -10.13,8.27l-63.77 0.09c9.6,-3.35 16.79,-8.26 21.56,-14.73 3.68,-4.94 5.55,-9.94 5.66,-14.96l0.22 -16.04c0.11,-6.32 0.4,-11.67 0.92,-16.04 0.61,-5.29 3.58,-9.43 8.93,-12.44 11.08,-5.35 19.5,-9.21 25.25,-11.58 1.68,-0.8 3.32,-1.65 4.92,-2.56z"/>
  <path class="fil1" style="mask:url(#id0)" d="M177.26 94.11c-6.98,3.02 -13.9,6.35 -20.72,9.64 -3.02,1.74 -5.16,3.97 -5.57,7.54 -0.59,5.09 -0.81,10.28 -0.88,15.4l-0.22 16.04c-0.09,6.9 -2.85,13.17 -6.91,18.65 -1.21,1.63 -2.52,3.15 -3.93,4.56l1.06 -0c21.1,-16.39 35.5,-42.4 37.17,-71.84z"/>
  <path class="fil0" d="M17.85 40.62l164.07 20.66 0.7 8.68c6.74,-0.52 13.1,-2.87 19.39,-5.15 -3.7,4.98 -9.62,7.45 -15.17,9.83 -4.52,1.95 -8.9,3.74 -13.29,5.76 -8.44,3.88 -19.21,9.77 -25.3,16.27 -3.34,3.62 -6.05,8.16 -8.14,13.62 -1.97,5.31 -2.96,10.44 -2.96,15.4 0,2.04 0.15,5.09 0.4,9.15 0.28,4.06 0.4,7.11 0.4,9.15 0,4.56 -1.23,7.96 -3.71,10.24 -1.73,1.56 -5.09,3.23 -10.13,5 -10.4,3.66 -24.24,5.49 -41.49,5.49 -5.11,0 -9.3,-0.94 -12.61,-2.81 -4.1,-2.33 -6.14,-5.84 -6.14,-10.55 0,-0.5 0.04,-1.01 0.11,-1.56 0.07,-0.53 0.11,-0.94 0.11,-1.23 0,-0.64 -0.35,-0.97 -1.03,-0.97 -0.5,0 -0.96,0.53 -1.34,1.62 -0.64,1.73 -1.23,4.45 -1.78,8.18 -0.46,3.23 -0.7,5.53 -0.7,6.89 0,3.37 1.25,6.09 3.74,8.14l-20.31 0.03c-15.67,0.02 -25.53,-8.17 -25.44,-23.83l0.61 -108zm91.43 88.03c0,1.21 -1.12,2.52 -3.36,3.88 -2.24,1.36 -3.36,2.46 -3.36,3.29 0,0.31 0.79,0.75 2.37,1.3 1.56,0.57 2.35,1.21 2.35,1.97 0,1.8 -1.38,3.88 -4.17,6.25 -2.77,2.37 -5.05,3.55 -6.8,3.55 -0.37,0 -0.73,-0.37 -1.14,-1.12 4.63,-2.52 6.95,-4.15 6.95,-4.91 0,-0.39 -0.62,-0.88 -1.86,-1.45 -1.23,-0.57 -1.86,-1.21 -1.86,-1.93 0,-1.43 1.27,-3.91 3.82,-7.41 2.55,-3.49 4.45,-5.26 5.72,-5.26 0.88,0 1.34,0.62 1.34,1.84zm40.38 -52.66l-16.78 -1.74 0 16.78 11.68 1.21c1.52,-1.57 3.24,-3.09 5.1,-4.53l0 -11.71zm-99.2 45.29l-16.78 -1.74 0 16.78 16.78 1.74 0 -16.78zm24.8 2.58l-16.78 -1.74 0 16.78 16.78 1.74 0 -16.78zm-24.8 -30.38l-16.78 -1.74 0 16.78 16.78 1.74 0 -16.78zm24.8 2.58l-16.78 -1.74 0 16.78 16.78 1.74 0 -16.78zm24.8 2.58l-16.78 -1.74 0 16.78 16.78 1.74 0 -16.78zm24.8 2.58l-16.78 -1.74 0 16.78 16.78 1.74 0 -16.78zm-74.4 -35.54l-16.78 -1.74 0 16.78 16.78 1.74 0 -16.78zm24.8 2.58l-16.78 -1.74 0 16.78 16.78 1.74 0 -16.78zm24.8 2.58l-16.78 -1.74 0 16.78 16.78 1.74 0 -16.78zm24.8 2.58l-16.78 -1.74 0 16.78 16.78 1.74 0 -16.78z"/>
  <path class="fil1" d="M13.14 64.42l-0.41 0.19c-4.1,24.91 -8.19,49.81 -12.29,74.72 -1.56,9.52 0.95,17.11 9.37,22.34 -1.03,-2.95 -1.48,-6.37 -1.27,-10.26l4.6 -86.99z"/>
  <path class="fil1" d="M181.29 54.33l-163.64 -21.32c-0.02,-7.86 0.21,-15.73 -0.06,-23.59 -0.22,-6.54 4.22,-9.16 10.84,-7.88l27.93 4.53 0.47 13.57c0.2,5.74 5.06,10.43 10.8,10.43l0 0c5.74,0 10.27,-4.7 10.07,-10.43l-0.35 -10.17 53.16 8.63 0.83 13.11c0.36,5.74 5.35,10.44 11.09,10.44l0 0c5.74,0 10.14,-4.7 9.78,-10.44l-0.61 -9.69 18.3 2.97c6.2,1.01 9.06,3.44 9.62,9.74l1.78 20.09z"/>
  <path class="fil1" d="M140.58 12.29l-0 0c-2.62,0 -4.64,2.15 -4.47,4.77l0.89 14.15c0.17,2.62 2.45,4.77 5.07,4.77l0 0c2.62,0 4.64,-2.15 4.47,-4.77l-0.89 -14.15c-0.17,-2.63 -2.45,-4.77 -5.07,-4.77z"/>
  <path class="fil1" d="M66.59 0l0 0c-2.63,0 -4.7,2.15 -4.61,4.77l0.51 14.87c0.09,2.62 2.31,4.77 4.94,4.77l0 0c2.63,0 4.7,-2.15 4.61,-4.77l-0.51 -14.87c-0.09,-2.63 -2.31,-4.77 -4.94,-4.77z"/>
  <path class="fil2" d="M168.76 48.97c-15.79,-2.41 -46.48,-6.96 -64.32,-9.69 -17.84,-2.74 -22.83,-3.67 -28.57,-4.96 -5.73,-1.29 -12.21,-2.94 -17.94,-4.65 -5.73,-1.7 -10.73,-3.46 -13.9,-4.74 -3.17,-1.27 -4.51,-2.07 -7.18,-4.2 -2.67,-2.14 -6.66,-5.61 -10.76,-8.61 -3.01,-2.2 -6.07,-4.14 -8.31,-5.32 -0.16,0.79 -0.23,1.66 -0.19,2.61 0.27,7.86 0.04,15.73 0.06,23.59l163.64 21.32 -0.3 -3.43c-2.5,-0.42 -6.32,-1.03 -12.23,-1.93z"/>
 </g>
</svg>
