<svg width="50" height="50" viewBox="0 0 50 50" fill="none" xmlns="http://www.w3.org/2000/svg">
<g clip-path="url(#clip0_4055_7940)">
<path d="M38.1556 11.8423H11.8398V38.1581H38.1556V11.8423Z" fill="white"/>
<path d="M38.1602 49.9998L50.0023 38.1577H38.1602V49.9998Z" fill="#EA4335"/>
<path d="M50.0023 11.8423H38.1602V38.1581H50.0023V11.8423Z" fill="#FBBC04"/>
<path d="M38.1556 38.1577H11.8398V49.9998H38.1556V38.1577Z" fill="#34A853"/>
<path d="M0 38.1577V46.0525C0 48.2235 1.77632 49.9998 3.94737 49.9998H11.8421V38.1577H0Z" fill="#188038"/>
<path d="M50.0023 11.8421V3.94737C50.0023 1.77632 48.2259 0 46.0549 0H38.1602V11.8421H50.0023Z" fill="#1967D2"/>
<path d="M38.1579 0H3.94737C1.77632 0 0 1.77632 0 3.94737V38.1579H11.8421V11.8421H38.1579V0Z" fill="#4285F4"/>
<path d="M17.2367 32.2371C16.2499 31.5792 15.592 30.5923 15.1973 29.3423L17.4999 28.4213C17.6973 29.2108 18.092 29.8029 18.5525 30.2634C19.0788 30.7239 19.671 30.9213 20.3946 30.9213C21.1183 30.9213 21.7762 30.7239 22.3025 30.2634C22.8288 29.8029 23.092 29.2108 23.092 28.5529C23.092 27.8292 22.8288 27.2371 22.2367 26.7765C21.6446 26.316 20.9867 26.1187 20.1315 26.1187H18.8157V23.8818H19.9999C20.7236 23.8818 21.3157 23.6844 21.842 23.2897C22.3683 22.895 22.5657 22.3687 22.5657 21.645C22.5657 21.0529 22.3683 20.5265 21.9078 20.1976C21.4473 19.8029 20.921 19.6713 20.1973 19.6713C19.5394 19.6713 19.0131 19.8687 18.6183 20.1976C18.2236 20.5265 17.8946 20.9871 17.7631 21.5134L15.5262 20.5923C15.8552 19.7371 16.3815 19.0134 17.171 18.3555C17.9604 17.6976 19.0131 17.3687 20.2631 17.3687C21.1841 17.3687 22.0394 17.566 22.7631 17.895C23.4867 18.2239 24.0788 18.7502 24.4736 19.4081C24.8683 20.066 25.0657 20.7239 25.0657 21.5134C25.0657 22.3029 24.8683 23.0265 24.4736 23.5529C24.0788 24.0792 23.6183 24.5397 23.0262 24.8687V25.0002C23.7499 25.3292 24.4078 25.7897 24.8683 26.4476C25.3288 27.1055 25.592 27.8292 25.592 28.7502C25.592 29.6713 25.3946 30.4608 24.9341 31.1187C24.4736 31.7765 23.8815 32.3687 23.0262 32.7634C22.2367 33.1581 21.3157 33.3555 20.3288 33.3555C19.2762 33.2239 18.2236 32.895 17.2367 32.2371ZM31.2499 20.9213L28.7499 22.7634L27.4999 20.8555L31.9736 17.6318H33.6841V32.895H31.2499V20.9213Z" fill="#4285F4"/>
</g>
<defs>
<clipPath id="clip0_4055_7940">
<rect width="50" height="50" fill="white"/>
</clipPath>
</defs>
</svg>
