<svg width="50" height="50" viewBox="0 0 50 50" fill="none" xmlns="http://www.w3.org/2000/svg">
<g clip-path="url(#clip0_4055_7964)">
<path d="M50.0016 14.1518C50.0016 24.1641 50.0016 34.1764 50.0016 44.1887C49.9082 44.2702 49.9349 44.3926 49.8949 44.4946C49.5082 45.5073 48.1613 46.0307 47.1679 45.1947C44.9942 43.3662 42.8073 41.5446 40.627 39.7229C40.3336 39.4782 40.0402 39.2335 39.7135 38.9616C39.7135 39.0704 39.7135 39.1315 39.7135 39.1995C39.7135 41.6329 39.7135 44.0663 39.7135 46.5065C39.7135 47.0027 39.6202 47.4853 39.4068 47.9339C38.8134 49.1846 37.8266 49.8576 36.4664 49.9731C36.3931 49.9731 36.3197 49.9663 36.2531 49.9663C28.1453 49.9663 20.0309 49.9663 11.9232 49.9663C11.8498 49.9663 11.7765 49.9595 11.7098 49.9595C11.7098 49.8779 11.7098 49.8032 11.7098 49.7216C11.7098 45.9016 11.7098 42.0815 11.7098 38.2615C11.7098 38.1867 11.7098 38.112 11.7031 38.044C11.7098 38.0372 11.7231 38.0236 11.7298 38.0168C11.7631 38.0168 11.7965 38.0236 11.8298 38.0236C17.2572 38.0236 22.6846 38.0236 28.112 38.0304C28.272 38.0304 28.2853 37.976 28.2853 37.8333C28.2787 34.9717 28.2853 32.1168 28.2853 29.2552C28.2853 29.1804 28.292 29.1057 28.292 29.0377C28.3187 29.0513 28.3587 29.0581 28.3787 29.0785C28.9254 29.5475 29.4655 30.0233 30.0056 30.4991C30.499 30.9341 30.9924 31.3691 31.4924 31.8041C32.0725 32.3139 32.6593 32.8101 33.2393 33.3199C33.6461 33.6734 34.0528 34.0336 34.4662 34.3871C34.9596 34.8153 35.453 35.2367 35.9464 35.6718C36.4464 36.1068 36.9398 36.5418 37.4332 36.9768C37.9466 37.4254 38.46 37.8741 38.9734 38.3159C39.2001 38.513 39.4335 38.7101 39.6935 38.9344C39.6935 38.8189 39.6935 38.7509 39.6935 38.6761C39.6935 32.3343 39.6935 25.9925 39.6935 19.6439C39.6935 19.5624 39.6935 19.474 39.6935 19.3924C39.7069 19.372 39.7135 19.3516 39.7269 19.3313C39.7602 19.3041 39.8002 19.2769 39.8336 19.2497C42.2739 17.2105 44.7142 15.1714 47.1545 13.1254C47.5746 12.7719 48.0413 12.6224 48.5814 12.7312C49.1481 12.8399 49.5615 13.1458 49.8216 13.6692C49.9016 13.8119 49.9416 13.9818 50.0016 14.1518Z" fill="#00AB47"/>
<path d="M11.7282 38.0162C11.7216 38.023 11.7082 38.0366 11.7016 38.0434C11.6549 38.0434 11.6149 38.0366 11.5682 38.0366C7.71436 38.0366 3.85385 38.0366 0 38.0366C0 32.0075 0 25.9851 0 19.956L0.0133351 19.9492L0.0266702 19.956C0.0866782 19.956 0.146686 19.9628 0.206694 19.9628C3.98053 19.9628 7.76103 19.9628 11.5349 19.9628C11.5882 19.9628 11.6482 19.9628 11.7016 19.956C11.7082 19.9628 11.7149 19.9764 11.7216 19.9832C11.7216 25.9512 11.7216 31.9259 11.7216 37.8939C11.7216 37.9415 11.7216 37.9754 11.7282 38.0162Z" fill="#2683FB"/>
<path d="M0 38.0371C3.85385 38.0371 7.71436 38.0371 11.5682 38.0371C11.6149 38.0371 11.6549 38.0439 11.7016 38.0439C11.7016 38.1187 11.7082 38.1934 11.7082 38.2614C11.7082 42.0815 11.7082 45.9015 11.7082 49.7215C11.7082 49.8031 11.7082 49.8779 11.7082 49.9594C11.6349 49.9594 11.5615 49.9662 11.4949 49.9662C8.88118 49.9662 6.2675 49.9662 3.65382 49.9662C3.5138 49.9662 3.37378 49.9662 3.24043 49.973C2.93372 49.9594 2.63368 49.9051 2.34031 49.7963C1.16682 49.3613 0.413388 48.532 0.0933458 47.2949C0.060008 47.1658 0.0666755 47.0298 0.00666756 46.9075C0 43.9507 0 40.9939 0 38.0371Z" fill="#0066D9"/>
<path d="M3.23438 49.9996C3.23438 49.9928 3.23438 49.9793 3.23438 49.9725C3.37439 49.9725 3.51441 49.9658 3.64776 49.9658C6.26145 49.9658 8.87513 49.9658 11.4888 49.9658C11.5622 49.9658 11.6355 49.959 11.7022 49.959C11.7755 49.959 11.8489 49.9658 11.9155 49.9658C20.0233 49.9658 28.1377 49.9658 36.2454 49.9658C36.3188 49.9658 36.3921 49.9725 36.4588 49.9725C36.4588 49.9793 36.4588 49.9928 36.4588 49.9996C25.3907 49.9996 14.3092 49.9996 3.23438 49.9996Z" fill="#BEE9D0"/>
<path d="M11.7031 8.03384C11.7031 8.0203 11.7031 8.01354 11.7031 8C19.9576 8 28.212 8 36.4731 8C36.4731 8.00677 36.4731 8.0203 36.4731 8.02707C36.3998 8.02707 36.3264 8.03384 36.2597 8.03384C32.906 8.03384 29.5522 8.03384 26.1984 8.03384C21.3644 8.03384 16.5304 8.03384 11.7031 8.03384Z" fill="#FEEDBE"/>
<path d="M11.6983 8.03414C16.5256 8.03414 21.3596 8.03414 26.1869 8.03414C29.5407 8.03414 32.8944 8.03414 36.2482 8.03414C36.3216 8.03414 36.3949 8.02734 36.4616 8.02734C38.0018 8.1361 39.2219 9.15568 39.602 10.6443C39.6753 10.923 39.7087 11.2084 39.7087 11.4939C39.7087 14.0293 39.7087 16.5646 39.7087 19.1C39.7087 19.1748 39.7153 19.2495 39.722 19.3175C39.7087 19.3379 39.702 19.3583 39.6887 19.3787C39.6487 19.4059 39.6087 19.4331 39.5687 19.4671C36.3749 22.1656 33.1811 24.8641 29.994 27.5557C29.4273 28.0384 28.8539 28.5142 28.2872 28.99C28.2872 28.9084 28.2805 28.8336 28.2805 28.7521C28.2805 25.904 28.2805 23.056 28.2805 20.208C28.2805 19.9769 28.2805 19.9769 28.0605 19.9769C22.6731 19.9769 17.2857 19.9769 11.8983 19.9769C11.8383 19.9769 11.7783 19.9836 11.7183 19.9904C11.7116 19.9836 11.7049 19.9701 11.6983 19.9633C11.6983 19.9089 11.7049 19.8477 11.7049 19.7933C11.7049 15.9393 11.7049 12.0785 11.7049 8.22446C11.7049 8.17009 11.6983 8.10891 11.6983 8.05453C11.6916 8.04774 11.6983 8.04094 11.6983 8.03414Z" fill="#FEB900"/>
<path d="M28.2918 29.0305C28.2918 29.0237 28.2852 29.0169 28.2852 29.0033C28.2852 28.9965 28.2852 28.9965 28.2918 28.9897C28.8586 28.5139 29.432 28.0381 29.9987 27.5555C33.1925 24.857 36.3862 22.1653 39.5733 19.4668C39.6133 19.4328 39.6533 19.4056 39.6933 19.3784C39.6933 19.46 39.6933 19.5483 39.6933 19.6299C39.6933 25.9717 39.6933 32.3135 39.6933 38.6621C39.6933 38.7369 39.6933 38.8049 39.6933 38.9204C39.4333 38.6961 39.1999 38.5058 38.9732 38.3019C38.4598 37.8533 37.9464 37.4114 37.433 36.9628C36.9396 36.5278 36.4462 36.0928 35.9462 35.6578C35.4528 35.2295 34.9594 34.8013 34.466 34.3731C34.0592 34.0196 33.6525 33.6594 33.2391 33.3059C32.6591 32.8029 32.0723 32.2999 31.4922 31.7901C30.9922 31.3551 30.4988 30.9201 30.0054 30.4851C29.4653 30.0093 28.9186 29.5403 28.3785 29.0645C28.3585 29.0509 28.3252 29.0441 28.2918 29.0305Z" fill="#00832D"/>
<path d="M11.6983 8.0542C11.6983 8.10858 11.705 8.16975 11.705 8.22413C11.705 12.0782 11.705 15.939 11.705 19.793C11.705 19.8474 11.6983 19.9085 11.6983 19.9629C11.645 19.9629 11.585 19.9697 11.5316 19.9697C7.7578 19.9697 3.9773 19.9697 0.203461 19.9697C0.143453 19.9697 0.0834455 19.9629 0.0234375 19.9629C0.0567753 19.9221 0.0967806 19.8746 0.130118 19.8338C3.95063 15.9458 7.76447 12.0578 11.5783 8.16975C11.6183 8.12897 11.6583 8.09498 11.6983 8.0542Z" fill="#E84235"/>
</g>
<defs>
<clipPath id="clip0_4055_7964">
<rect width="50" height="50" fill="white"/>
</clipPath>
</defs>
</svg>
