<svg width="50" height="50" viewBox="0 0 50 50" fill="none" xmlns="http://www.w3.org/2000/svg">
<g clip-path="url(#clip0_4055_8045)">
<path d="M28.7084 18C23.8143 18 19.2735 20.6625 16.9021 24.9325C15.893 24.4301 14.783 24.179 13.6731 24.179C10.0404 24.179 6.91221 26.8414 6.35722 30.4082C2.47225 31.9655 0 35.6829 0 39.8022C0 45.4286 4.59132 50 10.2422 50C10.6963 50 11.0999 49.9498 11.5035 49.8995H40.0101C40.1615 49.8995 40.3128 49.8995 40.4642 49.8995C40.6155 49.8995 40.7669 49.8995 40.8678 49.8995H41.5742V49.8493C46.3673 49.2967 50 45.2276 50 40.3548C50 35.7834 46.7205 31.865 42.2301 31.011C41.9778 23.7268 35.9738 18 28.7084 18Z" fill="url(#paint0_linear_4055_8045)"/>
</g>
<defs>
<linearGradient id="paint0_linear_4055_8045" x1="50.2636" y1="34.4258" x2="0.0646129" y2="33.7304" gradientUnits="userSpaceOnUse">
<stop stop-color="#3E82F4"/>
<stop offset="1" stop-color="#93DCF7"/>
</linearGradient>
<clipPath id="clip0_4055_8045">
<rect width="50" height="50" fill="white"/>
</clipPath>
</defs>
</svg>
