<svg width="50" height="50" viewBox="0 0 50 50" fill="none" xmlns="http://www.w3.org/2000/svg">
<g clip-path="url(#clip0_4055_8181)">
<path d="M26.546 18.445C30.5458 18.445 33.8185 15.1901 33.8185 11.2118C33.8185 7.23348 30.5458 3.97852 26.546 3.97852C22.5461 3.97852 19.2734 7.23348 19.2734 11.2118C19.2734 15.1901 22.5461 18.445 26.546 18.445Z" fill="#7B83EB"/>
<path d="M25.9995 12.7485H19.3633V12.9294V13.0198C20.3633 16.7268 24.1813 19.0776 27.9994 18.2639V14.8281C28.0903 13.6527 27.1812 12.7485 25.9995 12.7485Z" fill="black" fill-opacity="0.098"/>
<path d="M24.4516 14.2856H19.9062C21.088 16.8173 23.7243 18.4448 26.4515 18.4448V16.3652C26.5424 15.1898 25.6334 14.2856 24.4516 14.2856Z" fill="black" fill-opacity="0.2"/>
<path d="M42.9974 18.8968C45.9973 18.8968 48.4517 16.4555 48.4517 13.4718C48.4517 10.4881 45.9973 8.04688 42.9974 8.04688C39.9974 8.04688 37.543 10.4881 37.543 13.4718C37.543 16.4555 39.9065 18.8968 42.9974 18.8968Z" fill="#5059C9"/>
<path d="M47.636 20.5244H35.3636C34.8181 20.5244 34.3636 20.9765 34.3636 21.519V34.0868C34.2727 37.7938 36.909 41.1392 40.5452 41.9529C41.0907 42.0433 41.6361 42.1338 42.1816 42.1338C46.4542 42.1338 49.9995 38.6076 49.9995 34.358V22.7848C49.9995 21.519 48.9086 20.5244 47.636 20.5244Z" fill="#5059C9"/>
<path d="M39.0891 22.7849V37.6131C39.0891 44.3942 33.4529 50 26.6349 50C22.1805 50 18.0897 47.6492 15.8171 43.7613C15.5443 43.3093 15.2716 42.7668 14.9989 42.2243C14.8171 41.6818 14.6353 41.2297 14.4535 40.6872C14.1807 39.6926 14.0898 38.6076 14.0898 37.6131V22.7849C14.0898 21.5191 15.1807 20.4341 16.4534 20.4341H36.7256C37.9983 20.5245 39.0891 21.5191 39.0891 22.7849Z" fill="#7B83EB"/>
<path d="M24.4516 14.2856H19.9062C21.088 16.8173 23.7243 18.4448 26.4515 18.4448V16.3652C26.5424 15.1898 25.6334 14.2856 24.4516 14.2856Z" fill="black" fill-opacity="0.2"/>
<path d="M28.0894 20.5245V40.2351C28.0894 41.2297 27.4531 42.0434 26.4531 42.2243C26.2713 42.2243 26.1804 42.3147 25.9986 42.3147H14.9989C14.8171 41.7722 14.6353 41.3201 14.4535 40.7776C14.1807 39.783 14.0898 38.6981 14.0898 37.7035V22.7849C14.0898 21.5191 15.1807 20.4341 16.4534 20.4341H28.0894V20.5245V20.5245Z" fill="black" fill-opacity="0.098"/>
<path d="M26.5412 20.5245V41.7722C26.5412 41.953 26.5412 42.0434 26.4503 42.2243C26.2685 43.1284 25.3594 43.8517 24.4503 43.8517H15.7233C15.4506 43.3997 15.1779 42.8572 14.9052 42.3147C14.7233 41.7722 14.5415 41.3201 14.3597 40.7776C14.087 39.783 13.9961 38.6981 13.9961 37.7035V22.7849C13.9961 21.5191 15.087 20.4341 16.3597 20.4341H26.5412V20.5245ZM26.5412 20.5245V38.6981C26.5412 39.8735 25.6321 40.7776 24.4503 40.7776H14.4506C14.1779 39.783 14.087 38.6981 14.087 37.7035V22.7849C14.087 21.5191 15.1779 20.4341 16.4506 20.4341H26.5412V20.5245V20.5245ZM16.3597 20.5245C15.087 20.5245 13.9961 21.6095 13.9961 22.8753V37.6131C13.9961 38.6981 14.087 39.6926 14.3597 40.6872H22.814C23.9958 40.6872 24.9049 39.783 24.9049 38.6076V20.5245H16.3597V20.5245Z" fill="black" fill-opacity="0.2"/>
<path d="M2.09085 14.2857H22.9084C24.0902 14.2857 24.9993 15.1898 24.9993 16.3652V37.0704C24.9993 38.2458 24.0902 39.15 22.9084 39.15H2.09085C0.909065 39.15 0 38.2458 0 37.0704V16.3652C0 15.1898 0.909065 14.2857 2.09085 14.2857Z" fill="#4B53BC"/>
<path d="M18.7257 21.9711H14.0894V34.4485H10.9986V21.9711H6.27148V18.897H18.7257V21.9711Z" fill="white"/>
</g>
<defs>
<clipPath id="clip0_4055_8181">
<rect width="50" height="50" fill="white"/>
</clipPath>
</defs>
</svg>
