<svg width="50" height="50" viewBox="0 0 50 50" fill="none" xmlns="http://www.w3.org/2000/svg">
<path d="M26.7511 43.8107C26.8238 43.3232 26.8481 8.60862 26.7753 7.8529C20.9061 9.26683 15.0369 10.6564 9.16764 12.0703V36.546C6.13601 37.7406 3.12864 38.9107 0.097012 40.1052C0.072759 40.1052 0.072759 40.0809 0.048506 40.0809C0.024253 40.0809 0.024253 40.0565 0.024253 40.0321C0.024253 39.9346 0 39.8371 0 39.764C0 29.8664 0 19.9689 0 10.1201C0.145518 9.94942 0.315289 9.92504 0.460807 9.87629C9.07063 6.60961 17.7047 3.36731 26.3145 0.125009C26.6056 0.00311774 26.8966 -0.0456386 27.2119 0.0518741C31.9412 1.44143 36.6948 2.80661 41.4241 4.17179C41.4969 4.19617 41.5697 4.22055 41.6667 4.24492V45.9316C40.3085 46.3217 38.9503 46.6874 37.6164 47.0774C34.1725 48.0282 30.7528 48.9789 27.3089 49.9297C26.9693 50.0272 26.6783 50.0272 26.3388 49.9053C17.8502 46.7605 9.36166 43.6157 0.873108 40.4709C0.703337 40.3978 0.533566 40.349 0.412301 40.1784C9.19189 41.3729 17.9715 42.5918 26.7511 43.8107Z" fill="#DC3E15"/>
</svg>
