<svg width="50" height="50" viewBox="0 0 50 50" fill="none" xmlns="http://www.w3.org/2000/svg">
<g clip-path="url(#clip0_4055_8799)">
<g clip-path="url(#clip1_4055_8799)">
<path d="M25 50C38.8071 50 50 38.8071 50 25C50 11.1929 38.8071 0 25 0C11.1929 0 0 11.1929 0 25C0 38.8071 11.1929 50 25 50Z" fill="#E5E5E4"/>
<path d="M24.998 49.5019C38.5311 49.5019 49.5019 38.5312 49.5019 24.998C49.5019 11.4649 38.5311 0.494141 24.998 0.494141C11.4649 0.494141 0.494141 11.4649 0.494141 24.998C0.494141 38.5312 11.4649 49.5019 24.998 49.5019Z" fill="white"/>
<path d="M25.0021 47.5432C37.4512 47.5432 47.5432 37.4512 47.5432 25.0021C47.5432 12.5529 37.4512 2.46094 25.0021 2.46094C12.5529 2.46094 2.46094 12.5529 2.46094 25.0021C2.46094 37.4512 12.5529 47.5432 25.0021 47.5432Z" fill="#4A8CFF"/>
<path d="M38.2333 17.4172L31.8594 22.0761V27.9333L38.2333 32.5922C38.6877 32.9434 39.2149 33.0467 39.2149 32.1067V17.9028C39.2149 17.0661 38.791 16.9628 38.2333 17.4172Z" fill="white"/>
<path d="M30.0929 32.8407C30.5268 32.8407 30.8779 32.4896 30.8885 32.0557V21.4668C30.8779 19.0701 28.9257 17.1385 26.5291 17.1485H11.0846C10.6507 17.159 10.2996 17.4996 10.2891 17.944V28.5224C10.2996 30.919 12.2518 32.8507 14.6485 32.8407H30.0929V32.8407Z" fill="white"/>
</g>
</g>
<defs>
<clipPath id="clip0_4055_8799">
<rect width="50" height="50" fill="white"/>
</clipPath>
<clipPath id="clip1_4055_8799">
<rect width="50" height="50" fill="white"/>
</clipPath>
</defs>
</svg>
