 <!DOCTYPE svg PUBLIC "-//W3C//DTD SVG 1.1//EN" "http://www.w3.org/Graphics/SVG/1.1/DTD/svg11.dtd">
<svg id="b5933db4-cc0c-4521-a418-c9d7290a1ae8" data-name="Layer 1" xmlns="http://www.w3.org/2000/svg" width="865.76" height="682.89" viewBox="0 0 865.76 682.89">
<defs>
<style xmlns="http://www.w3.org/1999/xhtml">*, ::after, ::before { box-sizing: border-box; }
img, svg { vertical-align: middle; }
</style>
<style xmlns="http://www.w3.org/1999/xhtml">*, body, html { -webkit-font-smoothing: antialiased; }
img, svg { max-width: 100%; }
</style>
</defs>
<path d="M491.28,663.92c-1.86-1.6-6-6.65-2.81-12.53,1.18-2.15,3.67-3.22,5.92-4.17s4.63-1.77,6.49-3.36c3.52-3,4.49-8,6.83-12,2.68-4.58,7.68-8,13-7.78,6.05.28,11.1,5.23,13.39,10.86s2.37,11.9,2.42,18c0,3.37-.12,7.16-2.6,9.44-2.28,2.09-5.71,2.12-8.8,2l-33.08-1" fill="#f5f5f5"/>
<path d="M554.57,572.93h-87l15.68,93.47a10.44,10.44,0,0,0,7.43,8.32l.3.08c.26.07.51.15.78.2a10.2,10.2,0,0,0,1.76.2l0,.09.42-.06h38.79a10.69,10.69,0,0,0,2.13-.22,10.46,10.46,0,0,0,8.8-9.13l7.56-64.4.34-2.56h0l3-25.5Zm-16.42,59.62h-8.93l.9-27.12h10.35Zm3.19-27.12h8.55l-3.19,27.12H539Zm-25.52,57.19-.54-23.56h12.86l-.78,23.56Zm-13.9-23.56h12.5l.54,23.56H503.75Zm1,23.56H492.41c-1-6.36-2.29-14.63-3.69-23.56h12.34Zm-1.47-30.07-2.11-27.12h14.33l.63,27.12Zm13.71,0-.62-27.12h14.75l-.9,27.12Zm-.77-33.63-.58-25.12h16.53l-.84,25.12Zm-.87,0H498.8l-1.95-25.12h16.06Zm-15.55,0H482.39l-1.54-9.71c-1.62-10.15-2.23-14-2.57-15.41H496Zm.5,6.51,2.11,27.12H487.7c-.44-2.75-.87-5.54-1.31-8.32-1-6.41-2-12.81-3-18.8Zm-11.62,27.12h-8.39l-4.55-27.12h8.67C483.87,613.81,485.34,623.14,486.82,632.55Zm1,6.51c1.28,8.15,2.54,16.19,3.7,23.56h-8.07l-4-23.56Zm40.38,23.56.79-23.56h8.59l-2,23.56Zm2.12-63.7.83-25.12h12L541,598.92ZM477.46,573.8c.34,1.82,1.93,11.7,4.06,25.12h-8.73l-4.22-25.12Zm65.71,88.82h-6.72l2-23.56h7.48Zm7.48-63.7h-8.76L544,573.8h9.56Z" fill="#e1e1e1"/>
<path d="M378.54,158.26a50.64,50.64,0,0,1-.57,13.49l9.92,7.66-8.73,18.79-12.25-2.63a51,51,0,0,1-9.94,9.15l1.6,12.42-19.47,7.11-6.79-10.51a51.12,51.12,0,0,1-13.5-.58l-7.66,9.92-18.79-8.73L295,202.1a50.93,50.93,0,0,1-9.14-9.94l-12.42,1.6-7.12-19.47,10.52-6.79a50.72,50.72,0,0,1,.57-13.5l-9.92-7.65,8.73-18.8,12.25,2.64A50.67,50.67,0,0,1,298.4,121l-1.59-12.42,19.46-7.12L323.06,112a50.7,50.7,0,0,1,13.5.57l7.66-9.91L363,111.4l-2.63,12.25a50.7,50.7,0,0,1,9.14,9.95l12.42-1.6,7.12,19.46-10.52,6.8Zm-29.65-2.14a22.23,22.23,0,1,0-13.24,28.52A22.24,22.24,0,0,0,348.89,156.12Z" fill="#e1e1e1" fill-rule="evenodd"/>
<path d="M371,45.11a33.63,33.63,0,0,1-.38,8.92l6.56,5.06-5.77,12.43-8.1-1.75a33.21,33.21,0,0,1-6.57,6L357.8,84l-12.87,4.71-4.49-7a33.22,33.22,0,0,1-8.92-.38L326.46,88,314,82.19l1.75-8.09a33.55,33.55,0,0,1-6-6.58l-8.21,1.06-4.71-12.87,7-4.49a33.22,33.22,0,0,1,.38-8.92l-6.56-5.06,5.77-12.42,8.1,1.74a33.82,33.82,0,0,1,6.57-6L317,12.31,329.84,7.6l4.49,7a33.22,33.22,0,0,1,8.92.38l5.06-6.55,12.42,5.76L359,22.24A33.82,33.82,0,0,1,365,28.81l8.21-1L378,40.62,371,45.11ZM351.4,43.7a14.69,14.69,0,1,0-8.76,18.85A14.7,14.7,0,0,0,351.4,43.7Z" fill="#f5f5f5" fill-rule="evenodd"/>
<path d="M459.56,194.43a27,27,0,0,1-.3,7l5.16,4-4.55,9.8-6.38-1.38a26.46,26.46,0,0,1-5.18,4.77l.83,6.47L439,228.82l-3.54-5.48a26.2,26.2,0,0,1-7-.3l-4,5.17-9.8-4.55,1.38-6.38a26.75,26.75,0,0,1-4.77-5.18l-6.47.83-3.71-10.14,5.48-3.54a26.27,26.27,0,0,1,.3-7l-5.17-4,4.55-9.79,6.38,1.37a26.39,26.39,0,0,1,5.18-4.76l-.83-6.48,10.14-3.71,3.54,5.49a26.69,26.69,0,0,1,7,.29l4-5.16,9.79,4.54-1.37,6.39a26.11,26.11,0,0,1,4.76,5.18l6.48-.83L465,190.89l-5.48,3.54Zm-15.46-1.11a11.59,11.59,0,1,0-6.9,14.86A11.58,11.58,0,0,0,444.1,193.32Z" fill="#f5f5f5" fill-rule="evenodd"/>
<path d="M450,112.74a30.55,30.55,0,0,1-.34,8.06l5.92,4.57-5.22,11.22L443,135a30.26,30.26,0,0,1-5.93,5.46l.95,7.41-11.62,4.25-4.06-6.28a30.13,30.13,0,0,1-8.06-.34l-4.57,5.92-11.22-5.21,1.57-7.31A30.61,30.61,0,0,1,394.6,133l-7.41,1-4.25-11.63,6.28-4a30.13,30.13,0,0,1,.34-8.06l-5.92-4.57,5.21-11.23L396.16,96a30.29,30.29,0,0,1,5.94-5.46l-1-7.42,11.63-4.25,4.05,6.28a30.55,30.55,0,0,1,8.06.34l4.57-5.92,11.22,5.21-1.57,7.32A30,30,0,0,1,444.56,98l7.42-1,4.25,11.62L450,112.74Zm-17.71-1.27a13.27,13.27,0,1,0-7.91,17A13.27,13.27,0,0,0,432.24,111.47Z" fill="#ececec" fill-rule="evenodd"/>
<path d="M174.89,308.41a30.46,30.46,0,0,1-.34,8l5.92,4.57-5.22,11.23-7.31-1.58a30,30,0,0,1-5.93,5.47l1,7.41-11.62,4.25-4.06-6.28a30.13,30.13,0,0,1-8.06-.34l-4.57,5.92-11.22-5.21,1.57-7.31a30.61,30.61,0,0,1-5.46-5.94l-7.41,1L107.88,318l6.28-4.05a30.11,30.11,0,0,1,.34-8.06l-5.92-4.57,5.21-11.23,7.31,1.58a30,30,0,0,1,5.94-5.46l-1-7.42,11.62-4.25,4,6.28a30.55,30.55,0,0,1,8.06.34l4.57-5.92,11.22,5.21L164,287.75a30,30,0,0,1,5.46,5.93l7.42-.95,4.25,11.62-6.28,4.06Zm-17.71-1.28a13.27,13.27,0,1,0-7.9,17A13.27,13.27,0,0,0,157.18,307.13Z" fill="#ececec" fill-rule="evenodd"/>
<path d="M649.93,538.79a48.33,48.33,0,0,0-20.71-7.13c-3.39-.35-7.09-.25-9.8,1.8a2,2,0,0,0-1,1.79,2.13,2.13,0,0,0,1,1.22c8.43,6.43,21.18,7.24,30.56,2.32" fill="#e1e1e1"/>
<path d="M649.4,538.2c-4.69-3.66-9.41-7.34-13.38-11.77s-7.2-9.69-8.39-15.52c-.36-1.77-.47-3.79.67-5.19,10.66,8.33,19,19.1,21.1,32.48" fill="#e1e1e1"/>
<path d="M649.82,538.71c-.8-5.84-1.09-11.84.25-17.57s4.46-11.23,9.36-14.5c1.84,4.31,1.05,9.27-.25,13.77A66.86,66.86,0,0,1,649.9,540" fill="#e1e1e1"/>
<path d="M660.28,557.44c-6.35.77-11.88,4.12-16.62,8.41a31.5,31.5,0,0,0-9.5,16.31c6.23-.38,11.51-4.77,15.34-9.69s6.48-10.33,10.69-14.93" fill="#e1e1e1"/>
<path d="M662.55,560.44a41,41,0,0,1,4.73-38.76c3.62,12.86,2.29,27.39-4.73,38.76" fill="#e1e1e1"/>
<path d="M676.36,576.89A29.63,29.63,0,0,0,648,593.2c-.35.7-.66,1.59-.19,2.22a2.14,2.14,0,0,0,1.88.55c5.58-.36,10.53-3.72,14.62-7.55s7.64-8.24,12.15-11.55" fill="#e1e1e1"/>
<path d="M675.92,576a52.75,52.75,0,0,1-.52-29.47c1-3.8,2.78-7.79,6.29-9.57a1.23,1.23,0,0,1,1-.17,1.28,1.28,0,0,1,.61.7,17.73,17.73,0,0,1,1.48,8.46,54,54,0,0,1-1.32,8.56c-1.11,5.23-1.7,10.86-4.57,15.37a31.28,31.28,0,0,0-1.82,3.37c-.54,1.15-.55,1.55-1,2.47" fill="#e1e1e1"/>
<path d="M712.49,581.44c-2.71-10.31.17-22.8,6.66-31.25.48-.62,1.12-1.29,1.9-1.21,1.19.11,1.5,1.7,1.45,2.9a56.42,56.42,0,0,1-10,29.56" fill="#e1e1e1"/>
<path d="M715.79,583.69c12.52,3.26,26.88.09,37.3-7.58a30.2,30.2,0,0,0-20.19-2.48c-6.75,1.54-12.91,4.56-17.11,10.06" fill="#e1e1e1"/>
<path d="M718.57,576.83c7-11.43,20.46-18.89,33.85-19.57-1.54,5.45-6,9.68-11.07,12.24s-10.69,3.67-16.25,4.75c-2.16.42-5.13.88-6.53,2.58" fill="#e1e1e1"/>
<path d="M713.19,543.53c1.9-6.5,3.81-13.06,4.33-19.82s-.44-13.81-3.95-19.61c-6.55,12.68-7.21,27.48-.58,40.11" fill="#e1e1e1"/>
<path d="M735.24,532.39c7.66-13.92,23.29-25,39.1-26.6-6.1,15.19-22.73,26.93-39.1,26.6" fill="#e1e1e1"/>
<path d="M730.42,535.12c11.43,1.74,21.16,9,31.84,13.46a14.2,14.2,0,0,0,7.19,1.37c2.45-.32,4.87-2,5.42-4.37A6.26,6.26,0,0,0,773,540a15.36,15.36,0,0,0-5.23-3.17c-11.63-4.84-24.1-5-36.34-2" fill="#e1e1e1"/>
<path d="M723.81,543.13c2.59.74,3.47,2.08,5.52,3.82a59.49,59.49,0,0,0,24.14,12.4c.92.23,2.13.32,2.59-.51s-.11-1.61-.63-2.26c-3.71-4.64-9-7.82-14.57-9.89s-10.4-4.58-17.05-4" fill="#e1e1e1"/>
<path d="M716.35,494.74a45.68,45.68,0,0,0,35,11.91,2.35,2.35,0,0,0,1.59-.57c.88-1-.18-2.44-1.2-3.24-10.3-8-22.77-11.36-35.42-8.1" fill="#e1e1e1"/>
<path d="M725.2,491.5a48.81,48.81,0,0,1,43.7-7.21c-5.5,5.42-13.14,8.34-20.82,9.14a65.9,65.9,0,0,1-22.88-1.93" fill="#e1e1e1"/>
<path d="M721.68,469.26c-1-10.28-.35-18.39-1.07-28.71-.05-.83-.23-1.82-1-2.12-1.08-.41-2,.91-2.33,2A32.94,32.94,0,0,0,721.67,469" fill="#e1e1e1"/>
<path d="M720.94,470.4c7-4.31,12.19-9.94,17-16.55,3.36-4.6,6.2-10.11,5.43-15.76-4.72-.09-9.21,2.51-12.28,6.1s-4.9,8.07-6.26,12.59-2.32,9.17-3.92,13.62" fill="#e1e1e1"/>
<path d="M737.67,465.75a137.24,137.24,0,0,0,41.9-24.7c-5-2-10.74-.81-15.74,1.21-11.43,4.61-20.77,12.4-26.38,23.38" fill="#e1e1e1"/>
<path d="M725.65,476c7.73.85,15.59,1.4,23.26.11s14.67-4.25,21.72-7.21a2.6,2.6,0,0,0,1.48-1.12,1.71,1.71,0,0,0-.53-1.86,4.58,4.58,0,0,0-1.85-.87c-7.67-2.14-15.94-1.14-23.48,1.4a109.41,109.41,0,0,0-20.6,9.55" fill="#e1e1e1"/>
<path d="M681.48,495.09c-5.28-10.65-4.93-23.08-.37-34.06,3.2,4.89,3.6,11.11,3,16.93s-2.36,11.81-2.47,17.66" fill="#e1e1e1"/>
<path d="M660.4,484.46a47.5,47.5,0,0,0-35.3,15c6.58,1,13.35-.66,19.33-3.58s11.3-7,16.56-11.09" fill="#e1e1e1"/>
<path d="M646.23,479.72c-6.45-.53-12.65-1.32-18.85.57S615.55,486.5,613,492.47c6,.68,12.14-.83,17.67-3.33s10.55-6,15.54-9.42" fill="#e1e1e1"/>
<path d="M667.21,479.93c-5.8-3.8-11.75-7.67-18.5-9.24s-14.58-.41-19.28,4.68c5.46,3.21,12.09,3.58,18.43,3.58s14.1-.08,20.08,2" fill="#e1e1e1"/>
<path d="M667.25,480.24c-9.92-9.73-13.67-27.22-9.69-40.53a61.77,61.77,0,0,1,9.69,40.53" fill="#e1e1e1"/>
<path d="M694.5,452.66c1.87-4.35,3.19-8.91,4.87-13.33A38.06,38.06,0,0,1,706.3,427c3.17-3.52,7.55-6.13,12.27-6.37a49.41,49.41,0,0,1-23.82,32.06" fill="#e1e1e1"/>
<path d="M689.57,458.41c-3.09-4.26-6.67-10-10.86-13.22s-9.66-5.1-14.78-3.88a34.44,34.44,0,0,0,25.64,17.1" fill="#e1e1e1"/>
<path d="M690.56,453c-2-5.15-4.07-10.36-4.89-15.83s-.32-11.33,2.48-16.11c5.44,10.29,7.19,21.33,2.69,32.06" fill="#e1e1e1"/>
<path d="M694.55,421.07c3.09-10.19,12.42-17.7,22.5-21.15a8.53,8.53,0,0,1,4-.59,3.43,3.43,0,0,1,2.9,2.43c.37,1.73-1.06,3.29-2.41,4.44a76.44,76.44,0,0,1-26.94,14.87" fill="#e1e1e1"/>
<path d="M694.66,412.74c.4-6.58.81-13.25,3-19.48s6.25-12.07,12.25-14.8c1,6.64-1.91,13.25-5.44,19s-7.79,11.11-9.92,17.48" fill="#e1e1e1"/>
<path d="M694.5,417.26c-2.54-7.43-2.81-16.87-7.26-23.34-3.11-4.53-8.09-7.61-10.77-12.4-1.78,4.47-1.23,9.63.63,14.07s4.94,8.27,8.23,11.79,6.11,6.16,9.17,9.88" fill="#e1e1e1"/>
<path d="M694.55,636.1c-.19,0-.37-49.57-.38-110.71s.14-110.72.33-110.72.37,49.56.39,110.72S694.75,636.1,694.55,636.1Z" fill="#e1e1e1"/>
<path d="M737.87,487.61a10.52,10.52,0,0,1-1.86.7L730.88,490c-4.32,1.47-10.27,3.61-16.71,6.25s-12.41,5-15.84,7.93a11.6,11.6,0,0,0-3.18,4.21c-.49,1.17-.58,1.88-.65,1.86a1.86,1.86,0,0,1,0-.52,8.44,8.44,0,0,1,.37-1.44,11.23,11.23,0,0,1,3.1-4.49,28.19,28.19,0,0,1,6.88-4.27c2.74-1.28,5.79-2.62,9-3.95,6.47-2.65,12.46-4.71,16.83-6.06,2.19-.69,4-1.19,5.21-1.52A10.64,10.64,0,0,1,737.87,487.61Z" fill="#e1e1e1"/>
<path d="M752.07,452.73s-.16.21-.52.56L750,454.78l-5.94,5.4-19.76,17.59c-7.72,6.87-14.39,13.43-19,18.38-2.31,2.46-4.13,4.51-5.38,5.93l-1.43,1.64a3.37,3.37,0,0,1-.54.55,2.85,2.85,0,0,1,.43-.64c.3-.4.73-1,1.33-1.72,1.18-1.49,3-3.59,5.22-6.11a251.2,251.2,0,0,1,18.9-18.56c7.74-6.85,14.79-13,19.91-17.44l6.09-5.23,1.68-1.39A3.62,3.62,0,0,1,752.07,452.73Z" fill="#e1e1e1"/>
<path d="M715.93,484.76c-.2-.09,1.41-3.81,3-8.52s2.39-8.68,2.59-8.64-.27,4.1-1.91,8.87a59.15,59.15,0,0,1-2.4,6A9.28,9.28,0,0,1,715.93,484.76Z" fill="#e1e1e1"/>
<path d="M694.6,514.76a8.72,8.72,0,0,1-1.19-1.38l-3-3.9c-2.55-3.31-6.09-7.88-10.06-12.87s-7.61-9.48-10.25-12.72L666.94,480a8.57,8.57,0,0,1-1.07-1.47,8.3,8.3,0,0,1,1.28,1.29c.8.86,1.92,2.12,3.29,3.7,2.74,3.16,6.45,7.6,10.43,12.6s7.44,9.63,9.9,13c1.23,1.7,2.21,3.08,2.86,4.05A8.84,8.84,0,0,1,694.6,514.76Z" fill="#e1e1e1"/>
<path d="M685.1,502.57c-.12.12-2.65-2.88-4-7.45a21.27,21.27,0,0,1-.9-7.51l.31,0c-.14.58-.24.88-.3.87s-.06-.33,0-.92l.32,0a33.94,33.94,0,0,0,1.27,7.3C683.09,499.34,685.29,502.45,685.1,502.57Z" fill="#e1e1e1"/>
<path d="M672.84,487.14a12.69,12.69,0,0,0-2.78-1.61,18.43,18.43,0,0,0-7.71-.61,47.28,47.28,0,0,0-7.77,1.25,25,25,0,0,1-3.2.77,11,11,0,0,1,3.06-1.26,35.78,35.78,0,0,1,7.85-1.48c3.1-.27,6,0,8,.86A5,5,0,0,1,672.84,487.14Z" fill="#e1e1e1"/>
<path d="M669.93,483.4c0,.12-1.62-.64-4.26-1.55a44.13,44.13,0,0,0-10.62-2.18,43.55,43.55,0,0,0-10.83.55c-2.74.49-4.4,1-4.44.89a4.1,4.1,0,0,1,1.13-.49,27.64,27.64,0,0,1,3.21-.9,37.8,37.8,0,0,1,21.73,1.66,26.45,26.45,0,0,1,3,1.38A4.24,4.24,0,0,1,669.93,483.4Z" fill="#e1e1e1"/>
<path d="M694.5,467.6c-.19,0-1.58-4.78-3.1-10.79s-2.6-10.91-2.41-11,1.58,4.78,3.1,10.79S694.7,467.55,694.5,467.6Z" fill="#e1e1e1"/>
<path d="M694.7,467.6c-.21.06-1.11-3.16-3.44-6.46s-5.17-5.06-5.06-5.23a4.88,4.88,0,0,1,1.95,1,15.87,15.87,0,0,1,3.7,3.81C694.27,464.16,694.87,467.58,694.7,467.6Z" fill="#e1e1e1"/>
<path d="M694.55,609.68c-.07,0-.22-1.2-.78-3.3a46.58,46.58,0,0,0-3.31-8.58c-3.43-7-9.66-15.88-17.58-24.77-3.92-4.48-7.73-8.71-11-12.76a89.36,89.36,0,0,1-7.84-11.3,54.4,54.4,0,0,1-4-8.39c-.36-1-.63-1.84-.77-2.4a4.49,4.49,0,0,1-.21-.86c.07,0,.43,1.14,1.24,3.16a62.07,62.07,0,0,0,4.14,8.23,95.28,95.28,0,0,0,7.91,11.15c3.25,4,7.06,8.21,11,12.7,7.94,8.92,14.16,17.9,17.5,25a43,43,0,0,1,3.12,8.73,23.06,23.06,0,0,1,.44,2.49A3.63,3.63,0,0,1,694.55,609.68Z" fill="#e1e1e1"/>
<path d="M733.7,565.46a20,20,0,0,1-2.05,1.15,44.68,44.68,0,0,0-5.32,3.52,61.15,61.15,0,0,0-7,6.37c-2.45,2.6-5,5.6-7.56,8.83-5.16,6.47-10,12.19-12.87,16.76-1.46,2.27-2.53,4.18-3.23,5.52a16,16,0,0,1-1.13,2.07,2.53,2.53,0,0,1,.19-.59c.16-.36.36-.92.69-1.6a51.77,51.77,0,0,1,3.06-5.67c2.8-4.68,7.58-10.48,12.73-16.94,2.58-3.23,5.14-6.25,7.64-8.83a57.39,57.39,0,0,1,7.16-6.33,38.23,38.23,0,0,1,5.5-3.36c.68-.34,1.23-.55,1.6-.7A2.23,2.23,0,0,1,733.7,565.46Z" fill="#e1e1e1"/>
<path d="M734.47,579.8a28.62,28.62,0,0,1-4.34.63,58.19,58.19,0,0,0-10.29,2,30.83,30.83,0,0,0-9.2,4.83c-2.13,1.64-3.13,3-3.23,2.92a3.75,3.75,0,0,1,.65-1,15.64,15.64,0,0,1,2.26-2.31,27.82,27.82,0,0,1,9.31-5.12,46.63,46.63,0,0,1,10.45-1.85A24.15,24.15,0,0,1,734.47,579.8Z" fill="#e1e1e1"/>
<path d="M708.68,588.63c-.23-.12,1.73-3.11,3.24-7.12s1.76-7.61,2-7.57a6.64,6.64,0,0,1-.07,2.33,25.06,25.06,0,0,1-1.26,5.48,26.26,26.26,0,0,1-2.52,5A6.8,6.8,0,0,1,708.68,588.63Z" fill="#e1e1e1"/>
<path d="M746.38,527a3.36,3.36,0,0,1-.7.37l-2,.93c-.9.38-2,.86-3.2,1.51s-2.66,1.28-4.14,2.17l-2.37,1.35c-.82.47-1.63,1-2.5,1.57-1.74,1.06-3.49,2.36-5.35,3.69a100,100,0,0,0-11.18,9.84,101.3,101.3,0,0,0-9.45,11.51c-1.26,1.91-2.51,3.7-3.5,5.48-.51.88-1.05,1.71-1.49,2.54l-1.26,2.42c-.85,1.51-1.45,3-2,4.21s-1,2.34-1.4,3.25l-.86,2.07a3.22,3.22,0,0,1-.34.7,3.34,3.34,0,0,1,.21-.75c.19-.56.43-1.26.73-2.12s.73-2.05,1.29-3.31,1.14-2.74,2-4.28c.4-.78.81-1.6,1.23-2.45s1-1.69,1.46-2.58c1-1.81,2.22-3.62,3.48-5.56A88.42,88.42,0,0,1,725.7,538c1.89-1.32,3.66-2.62,5.43-3.66.87-.53,1.7-1.08,2.53-1.55l2.4-1.31c1.52-.87,3-1.49,4.22-2.09a32.15,32.15,0,0,1,3.26-1.41l2.09-.8A3.36,3.36,0,0,1,746.38,527Z" fill="#e1e1e1"/>
<path d="M715.4,547.71a5,5,0,0,1,1.7-2.54,10.78,10.78,0,0,1,6.86-2.63,18.7,18.7,0,0,1,7.23,1.41,10.16,10.16,0,0,1,2.73,1.33,17.59,17.59,0,0,1-2.9-.85,21.93,21.93,0,0,0-7-1.18,11.19,11.19,0,0,0-6.56,2.31A19.09,19.09,0,0,0,715.4,547.71Z" fill="#e1e1e1"/>
<path d="M710.77,552.49c-.2-.11,1.55-2.67,1.94-6.34s-.65-6.56-.43-6.62.47.64.8,1.84a13,13,0,0,1-1.11,9.5C711.37,552,710.83,552.54,710.77,552.49Z" fill="#e1e1e1"/>
<path d="M660.32,616.78c1.06,18.94,6.77,38.21,15.55,57.69h38.19c8.37-19.29,13.69-38.52,14.63-57.69Z" fill="#e1e1e1"/>
<path d="M722.5,647.43c0,.2-12.57.36-28.07.36s-28.09-.16-28.09-.36,12.57-.35,28.09-.35S722.5,647.24,722.5,647.43Z" fill="#fafafa"/>
<path d="M721.65,654.3c0,.2-11.79.36-26.32.36S669,654.5,669,654.3s11.79-.36,26.33-.36S721.65,654.1,721.65,654.3Z" fill="#fafafa"/>
<path d="M676.49,629.22c.2,0,.36,3.94.36,8.79s-.16,8.8-.36,8.8-.36-3.94-.36-8.8S676.29,629.22,676.49,629.22Z" fill="#fafafa"/>
<path d="M697,629.22c.2,0,.36,4.08.36,9.11s-.16,9.1-.36,9.1-.36-4.07-.36-9.1S696.75,629.22,697,629.22Z" fill="#fafafa"/>
<path d="M716.16,629.06c.19,0,.35,4.16.35,9.29s-.16,9.29-.35,9.29-.36-4.16-.36-9.29S716,629.06,716.16,629.06Z" fill="#fafafa"/>
<path d="M727.48,629.22c0,.2-14.75.36-32.93.36s-32.94-.16-32.94-.36,14.75-.36,32.94-.36S727.48,629,727.48,629.22Z" fill="#fafafa"/>
<path d="M162.26,557.92c6.2-3.2,13.5-3.62,20.38-2.48,3.69.61,7.55,1.72,10.06,4.49s3,7.67.11,10.05c-1.72,1.43-4.12,1.64-6.35,1.62-5.39-.07-11.36-1-15.67,2.23-2.45,1.84-4.09,4.92-7,5.83s-6.12-.81-7.64-3.4a11.87,11.87,0,0,1-.86-8.75A13.34,13.34,0,0,1,162.26,557.92Z" fill="#e1e1e1"/>
<path d="M148.06,530.5c3.79,5.42,11.15,3.62,14.57.32s4.86-8.09,6.17-12.66c3-10.44,6-21.38,3.8-32a17.74,17.74,0,0,0-4.09-8.7c-2.23-2.36-5.66-3.76-8.8-2.93-3.72,1-6,4.62-7.69,8.08a76.23,76.23,0,0,0-7.54,32.74c0,5.28.6,10.81,3.58,15.16" fill="#e1e1e1"/>
<path d="M137.65,538.27c4.11-4.88,4.89-12,3.06-18.13s-6-11.32-10.73-15.57a57.73,57.73,0,0,0-19.23-11.34,20.44,20.44,0,0,0-8.64-1.47,9.08,9.08,0,0,0-7.26,4.39c-2,3.86-.08,8.54,2,12.35a146.81,146.81,0,0,0,12.63,19.23c3.79,4.88,8.12,9.7,13.89,11.9s11.76,2,14.82-2" fill="#e1e1e1"/>
<path d="M147.8,612.16a11.33,11.33,0,0,0,.34-2.46q.27-2.69.66-6.71a95,95,0,0,1,1.51-9.85,74.86,74.86,0,0,1,3.58-11.62A42.54,42.54,0,0,1,159.82,571a22,22,0,0,1,7.5-6.24,21,21,0,0,1,6.32-2,11.93,11.93,0,0,0,2.45-.35,11.69,11.69,0,0,0-2.49,0,19.05,19.05,0,0,0-6.59,1.71,22.15,22.15,0,0,0-7.91,6.29,42,42,0,0,0-6.16,10.73A71.4,71.4,0,0,0,149.39,593a83.87,83.87,0,0,0-1.31,10c-.21,2.85-.29,5.15-.33,6.75A11.1,11.1,0,0,0,147.8,612.16Z" fill="#2f2e41" data-secondary="true"/>
<path d="M148.26,607a4.45,4.45,0,0,0,.07-1.14c0-.86,0-1.94,0-3.27,0-2.83,0-6.93.15-12,.25-10.12,1.12-21,2.8-36.38,1.6-14.45,3.74-31.26,6-42.18.49-2.49,1-4.73,1.44-6.68s.81-3.66,1.17-5l.76-3.17a5.47,5.47,0,0,0,.2-1.13,5.13,5.13,0,0,0-.4,1.07c-.25.82-.56,1.86-.94,3.13s-.86,3-1.35,5-1,4.18-1.58,6.67a371.35,371.35,0,0,0-6.3,39.14c-1.69,15.39-2.44,29.41-2.51,39.56-.06,5.07.05,9.18.17,12,.09,1.33.15,2.41.2,3.26A5.45,5.45,0,0,0,148.26,607Z" fill="#2f2e41" data-secondary="true"/>
<path d="M148.33,580a21.79,21.79,0,0,0,0-3.41c-.13-2.19-.43-5.36-1.05-9.24a122,122,0,0,0-3-13.46,110.89,110.89,0,0,0-5.63-15.93c-4.67-11.07-11-20.12-16.53-25.73a41.52,41.52,0,0,0-3.89-3.62c-.59-.5-1.12-1-1.66-1.4l-1.51-1a21.42,21.42,0,0,0-2.87-1.84c-.16.22,4.07,2.71,9.41,8.39a89.44,89.44,0,0,1,16.12,25.65,126.35,126.35,0,0,1,5.66,15.78c1.47,4.94,2.45,9.49,3.19,13.32s1.12,7,1.36,9.15A23.23,23.23,0,0,0,148.33,580Z" fill="#2f2e41" data-secondary="true"/>
<polygon points="122.2 627.65 124.91 664.76 172.59 664.76 175.29 627.65 122.2 627.65" fill="#2f2e41" data-secondary="true"/>
<rect x="117.6" y="613.02" width="63.38" height="14.63" fill="#2f2e41" data-secondary="true"/>
<polygon points="117.6 663.34 117.6 667.39 120.58 667.39 179.93 667.39 179.93 663.34 117.6 663.34" fill="#2f2e41" data-secondary="true"/>
<polygon points="123.5 674.53 120.58 667.39 177.66 667.39 174.26 674.53 123.5 674.53" fill="#2f2e41" data-secondary="true"/>
<path d="M174.41,639.78a2.06,2.06,0,0,1-.22.34l-.72.94-2.77,3.56-.13.16-.12-.17c-1.74-2.41-4.07-5.64-6.82-9.43H164c-2,2.87-4.29,6.07-6.71,9.51l-.22.29-.23-.28-8-9.47h.46l-.44.55-7.12,8.93-.24.3-.22-.31c-2.42-3.42-4.67-6.62-6.72-9.51l.39,0-8.27,9.43-.15.17-.11-.19-2.59-4.36c-.28-.47-.49-.85-.67-1.16s-.22-.4-.2-.41a2.53,2.53,0,0,1,.28.37l.73,1.11,2.72,4.28-.26,0,8.15-9.55.2-.24.19.26,6.78,9.47h-.46l7.11-9,.44-.55.22-.28.24.27c2.78,3.34,5.47,6.55,7.94,9.5l-.44,0,6.78-9.46.2-.28.19.28,6.68,9.53h-.24l2.89-3.47.77-.89C174.3,639.87,174.4,639.77,174.41,639.78Z" fill="#fff"/>
<path d="M301.1,58.65l-26.86.23a6.67,6.67,0,0,0-6.46,6.87l0,4.87a6.67,6.67,0,0,1-6.46,6.87L209,77.92a6.68,6.68,0,0,1-6.58-6.76l0-4.88a6.69,6.69,0,0,0-6.59-6.76l-9.44.08-23.51.19a21.14,21.14,0,0,0-21,21.32l2.93,339A21.12,21.12,0,0,0,166.12,441l138.25-1.13a21.13,21.13,0,0,0,21-21.32l-2.92-339A21.14,21.14,0,0,0,301.1,58.65Z" fill="#fff" stroke="#d1d3d4" stroke-miterlimit="10"/>
<path d="M301.1,58.65l.72,0a15.45,15.45,0,0,1,2.15.15,19.81,19.81,0,0,1,7.95,2.66,20.37,20.37,0,0,1,4.86,3.87,21.39,21.39,0,0,1,4.08,6.27,21.93,21.93,0,0,1,1.66,8.57q0,4.68.09,10c.27,28.16.65,68.9,1.13,119.24s1,110.28,1.59,176.84q.1,12.48.22,25.26l.06,6.41a22.8,22.8,0,0,1-.76,6.46,21.44,21.44,0,0,1-2.64,6,23.21,23.21,0,0,1-4.36,4.92,21.37,21.37,0,0,1-12.17,4.85c-4.43.17-8.83.11-13.28.17l-26.91.23-55.24.46L182,441.2l-14.27.12a22.29,22.29,0,0,1-13.8-3.68,21.72,21.72,0,0,1-8.48-11.5,23.41,23.41,0,0,1-.94-7.14l-.06-7.12q-.12-14.24-.25-28.26-.24-28.06-.47-55.26c-.3-36.22-.6-71.16-.88-104.44s-.54-64.92-.79-94.52q-.18-22.2-.35-42.83c0-1.72,0-3.43,0-5.13,0-.85.06-1.71.09-2.56s.2-1.7.41-2.52a21.68,21.68,0,0,1,4.37-9,21.46,21.46,0,0,1,17.17-7.79l18.42-.14,8.86-.07,4.34,0a6.77,6.77,0,0,1,4.17,1.13,6.91,6.91,0,0,1,2.62,3.37,11.23,11.23,0,0,1,.46,4.17c0,.69,0,1.37,0,2.06a16.64,16.64,0,0,0,.08,2,6.68,6.68,0,0,0,1.61,3.52,6.18,6.18,0,0,0,3.25,2,7.16,7.16,0,0,0,1.91.17h1.94l7.63-.06,27.87-.2,12.29-.09c1,0,1.95,0,2.87-.06a6.27,6.27,0,0,0,2.58-.94,6.71,6.71,0,0,0,2.93-4.28,12.28,12.28,0,0,0,.14-2.57c0-.85,0-1.7,0-2.53a15.53,15.53,0,0,1,.09-2.46,7,7,0,0,1,.78-2.27,6.65,6.65,0,0,1,3.35-3,10.5,10.5,0,0,1,4.19-.49l13.71-.08,8.43,0h2.87l-2.87.06-8.43.1L276.09,59a10.37,10.37,0,0,0-4.12.48,6.46,6.46,0,0,0-3.24,2.94,6.9,6.9,0,0,0-.75,2.2A13.94,13.94,0,0,0,267.9,67c0,.83,0,1.68,0,2.53a12.25,12.25,0,0,1-.15,2.62,6.89,6.89,0,0,1-3,4.44,6.42,6.42,0,0,1-2.68,1c-1,.09-1.92,0-2.9.07l-12.29.11L219,78l-7.62.06-2,0a7.46,7.46,0,0,1-2-.18A6.53,6.53,0,0,1,204,75.83a7.06,7.06,0,0,1-1.71-3.71,15.86,15.86,0,0,1-.09-2.06c0-.68,0-1.37,0-2.06a11.13,11.13,0,0,0-.45-4,6.61,6.61,0,0,0-2.48-3.19,6.42,6.42,0,0,0-3.95-1.05l-4.35,0-8.86.07L163.71,60a21,21,0,0,0-16.83,7.64,21.17,21.17,0,0,0-4.26,8.81c-.21.81-.26,1.65-.4,2.47s-.09,1.67-.1,2.52c0,1.7,0,3.41,0,5.12q.18,20.61.39,42.84c.26,29.6.54,61.23.84,94.51s.6,68.23.92,104.45q.24,27.17.48,55.25.12,14,.24,28.26,0,3.56.07,7.13a22.46,22.46,0,0,0,.92,7,21,21,0,0,0,8.24,11.18,21.77,21.77,0,0,0,13.46,3.57L182,440.6l28.26-.23,55.23-.45,26.92-.22c4.43-.06,8.88,0,13.24-.17a20.8,20.8,0,0,0,11.84-4.71,22.27,22.27,0,0,0,4.25-4.79,20.91,20.91,0,0,0,2.58-5.82,22,22,0,0,0,.73-6.3c0-2.14,0-4.28-.05-6.41q-.11-12.78-.21-25.26c-.55-66.56-1-126.51-1.46-176.85s-.72-91.08-.94-119.24c0-3.52-.05-6.84-.07-10a21.76,21.76,0,0,0-1.62-8.5,21,21,0,0,0-4-6.24,20.38,20.38,0,0,0-4.81-3.86,19.9,19.9,0,0,0-7.9-2.71,16.33,16.33,0,0,0-2.14-.18Z" fill="#fff" stroke="#d1d3d4" stroke-miterlimit="10"/>
<path d="M304.63,95.66c0,.1-3.49.23-7.8.3s-7.8.06-7.8,0,3.49-.22,7.8-.3S304.63,95.57,304.63,95.66Z" fill="none" stroke="#d1d3d4" stroke-miterlimit="10"/>
<path d="M304.7,99.66c0,.09-3.49.22-7.8.29s-7.8.06-7.8,0,3.48-.22,7.79-.3S304.7,99.57,304.7,99.66Z" fill="none" stroke="#d1d3d4" stroke-miterlimit="10"/>
<path d="M304.77,103.65c0,.09-3.49.22-7.8.3s-7.81.06-7.81,0,3.49-.22,7.8-.29S304.76,103.56,304.77,103.65Z" fill="none" stroke="#d1d3d4" stroke-miterlimit="10"/>
<path d="M162.83,109.46l.32,0,.9,0,3.33-.1-.09.09c0-.74,0-1.54-.06-2.42,0-.44,0-.87,0-1.39a1.3,1.3,0,0,1,1.11-1c.54,0,1-.05,1.59,0a1.29,1.29,0,0,1,1.11,1.27c0,1.13,0,2.31.07,3.53l-.16-.16,4.21-.08-.16.17c0-1.69-.06-3.44-.1-5.24,0-.44,0-.89,0-1.33a1.36,1.36,0,0,0-.6-1c-.63-.61-1.24-1.21-1.85-1.79l-1.79-1.74-.87-.84a2,2,0,0,0-.87-.64,1.13,1.13,0,0,0-1,.19c-.26.22-.52.53-.78.78l-1.49,1.53c-.94,1-1.92,1.91-2.63,2.76a3,3,0,0,0-.2,1.57c0,.53,0,1,0,1.49v3.91c0,.35,0,.54,0,.55a4,4,0,0,1,0-.51c0-.4,0-.9,0-1.5s-.05-1.49-.08-2.4c0-.48,0-1,0-1.51,0-.27,0-.55,0-.83a1.72,1.72,0,0,1,.22-.88c.77-1,1.69-1.81,2.64-2.83l1.48-1.55c.27-.27.49-.53.81-.81a1.41,1.41,0,0,1,1.21-.25,2.24,2.24,0,0,1,1,.71l.87.84,1.79,1.72,1.86,1.8a2.85,2.85,0,0,1,.47.5,1.39,1.39,0,0,1,.23.71c0,.44,0,.89,0,1.34,0,1.79.06,3.54.09,5.23v.16h-.16l-4.2.06h-.16v-.15c0-1.22,0-2.4,0-3.52a1,1,0,0,0-.86-1c-.48,0-1,0-1.52,0a1,1,0,0,0-.9.83c0,.42,0,.91,0,1.34,0,.87,0,1.68,0,2.42v.09h-4.65Z" fill="none" stroke="#d1d3d4" stroke-miterlimit="10"/>
<path d="M293,156.22l-124.76,1.1a11.3,11.3,0,0,1-11.4-11.21l0-4.2a11.3,11.3,0,0,1,11.2-11.4l124.76-1.1a11.31,11.31,0,0,1,11.41,11.21l0,4.19A11.3,11.3,0,0,1,293,156.22Z" fill="none" stroke="#d1d3d4" stroke-miterlimit="10"/>
<path d="M293,156.22s.29,0,.85-.08a12.59,12.59,0,0,0,2.42-.49,11.65,11.65,0,0,0,3.53-1.9,11.1,11.1,0,0,0,3.33-4.29,10.69,10.69,0,0,0,.85-3.13,26.76,26.76,0,0,0,.07-3.61,25,25,0,0,0-.2-3.93,11.16,11.16,0,0,0-9-9,32,32,0,0,0-5.13-.15l-5.44.06-116.29,1.11A11.06,11.06,0,0,0,157.15,141c-.08,1.33,0,2.74,0,4.1a12.91,12.91,0,0,0,.45,4,11.15,11.15,0,0,0,4.62,6.2,10.56,10.56,0,0,0,3.59,1.49,16.11,16.11,0,0,0,3.88.26l7.8-.07,15.11-.12,52.28-.4,35.25-.23,9.58,0h2.49c.56,0,.85,0,.85,0l-.85,0-2.49.05-9.58.14-35.24.4-52.28.52-15.11.14-7.81.07a16.43,16.43,0,0,1-4-.27,11.07,11.07,0,0,1-3.76-1.56,11.69,11.69,0,0,1-4.85-6.5,13.19,13.19,0,0,1-.47-4.13c0-1.38-.08-2.73,0-4.15a11.59,11.59,0,0,1,11.44-10.72l116.28-1,5.45,0a31.9,31.9,0,0,1,5.19.18,11.49,11.49,0,0,1,7.68,5.28,11.61,11.61,0,0,1,1.52,4,25.83,25.83,0,0,1,.19,4,29.12,29.12,0,0,1-.1,3.65,11,11,0,0,1-.9,3.19,11.16,11.16,0,0,1-3.42,4.33,11,11,0,0,1-6.05,2.32Z" fill="none" stroke="#d1d3d4" stroke-miterlimit="10"/>
<path d="M295.19,142.16c-.05,0-.05-.44-.26-1.16a4.88,4.88,0,0,0-1.81-2.53,4.61,4.61,0,1,0,.07,7.41,4.87,4.87,0,0,0,1.76-2.56c.2-.73.19-1.17.24-1.16s0,.1,0,.31a3.21,3.21,0,0,1-.08.9,4.82,4.82,0,0,1-1.72,2.81,5,5,0,0,1-4.79.83,5.09,5.09,0,0,1-.09-9.59,5,5,0,0,1,4.81.74,4.78,4.78,0,0,1,1.77,2.78,3.41,3.41,0,0,1,.1.9C295.22,142.05,295.21,142.16,295.19,142.16Z" fill="none" stroke="#d1d3d4" stroke-miterlimit="10"/>
<path d="M297.94,150.5a18.29,18.29,0,0,1-4.39-4.67,9.73,9.73,0,0,1,2.39,2.15A9.85,9.85,0,0,1,297.94,150.5Z" fill="none" stroke="#d1d3d4" stroke-miterlimit="10"/>
<path d="M176.73,141.16l-2.63,0v-.68l6-.06v.69l-2.63,0,.06,6.8h-.79Z" fill="#d1d3d4"/>
<path d="M185.59,145.3l-4.7,0a2.08,2.08,0,0,0,2.23,1.94,2.26,2.26,0,0,0,1.72-.75l.43.48a3,3,0,0,1-5.14-1.9,2.71,2.71,0,0,1,2.72-2.87,2.67,2.67,0,0,1,2.75,2.83C185.6,145.13,185.59,145.22,185.59,145.3Zm-4.7-.52,4,0a2,2,0,0,0-4,0Z" fill="#d1d3d4"/>
<path d="M190.6,147.83l-1.81-2.33L187,147.86h-.86l2.2-2.9-2.14-2.72h.85l1.71,2.19,1.67-2.22h.83L189.19,145l2.27,2.86Z" fill="#d1d3d4"/>
<path d="M195.68,147.45a1.78,1.78,0,0,1-1.18.4,1.49,1.49,0,0,1-1.66-1.62l0-3.4h-1v-.64h1V141h.76v1.22h1.71v.64l-1.71,0,0,3.35a.9.9,0,0,0,1,1,1.21,1.21,0,0,0,.83-.3Z" fill="#d1d3d4"/>
<rect x="163.53" y="179.5" width="32.26" height="32.26" transform="matrix(1, -0.01, 0.01, 1, -1.72, 1.59)" fill="#e1e1e1"/>
<path d="M257.73,182.06c0,.15-10.79.37-24.09.48s-24.09.09-24.09-.06,10.78-.37,24.09-.48S257.72,181.91,257.73,182.06Z" fill="#e1e1e1"/>
<path d="M296.23,191.61c0,.15-19.38.44-43.29.65s-43.3.26-43.31.11,19.38-.44,43.3-.66S296.23,191.46,296.23,191.61Z" fill="#e1e1e1"/>
<path d="M295.27,198.68c0,.15-19.15.44-42.78.65s-42.79.25-42.79.1,19.15-.44,42.78-.65S295.27,198.53,295.27,198.68Z" fill="#e1e1e1"/>
<path d="M260.28,205.72c0,.15-11.31.38-25.26.5s-25.26.1-25.26-.05,11.3-.38,25.26-.5S260.28,205.57,260.28,205.72Z" fill="#e1e1e1"/>
<rect x="164" y="233.02" width="32.26" height="32.26" transform="matrix(1, -0.01, 0.01, 1, -2.19, 1.6)" fill="#e1e1e1"/>
<path d="M258.2,235.8c0,.15-10.78.37-24.09.49s-24.09.09-24.09-.07,10.78-.37,24.09-.48S258.2,235.65,258.2,235.8Z" fill="#e1e1e1"/>
<path d="M296.7,245.35c0,.15-19.38.44-43.29.65s-43.3.26-43.3.11,19.38-.44,43.3-.65S296.7,245.2,296.7,245.35Z" fill="#e1e1e1"/>
<path d="M295.75,252.42c0,.15-19.16.44-42.79.65s-42.79.25-42.79.1,19.15-.44,42.79-.65S295.75,252.27,295.75,252.42Z" fill="#e1e1e1"/>
<path d="M260.76,259.46c0,.16-11.31.38-25.26.5s-25.27.1-25.27,0,11.31-.37,25.26-.5S260.76,259.31,260.76,259.46Z" fill="#e1e1e1"/>
<rect x="164.48" y="286.76" width="32.26" height="32.26" transform="translate(-2.66 1.6) rotate(-0.51)" fill="#e1e1e1"/>
<path d="M258.67,289.54c0,.15-10.78.37-24.08.49s-24.09.09-24.09-.07,10.78-.36,24.08-.48S258.67,289.39,258.67,289.54Z" fill="#e1e1e1"/>
<path d="M297.18,299.09c0,.15-19.39.44-43.3.66s-43.3.25-43.3.1,19.38-.44,43.3-.65S297.18,298.94,297.18,299.09Z" fill="#e1e1e1"/>
<path d="M296.22,306.16c0,.15-19.16.44-42.78.65s-42.79.26-42.79.1,19.15-.44,42.78-.65S296.22,306,296.22,306.16Z" fill="#e1e1e1"/>
<path d="M261.23,313.2c0,.16-11.31.38-25.26.5s-25.26.1-25.27-.05,11.31-.37,25.27-.5S261.23,313.05,261.23,313.2Z" fill="#e1e1e1"/>
<rect x="164.95" y="340.5" width="32.26" height="32.26" transform="translate(-3.14 1.61) rotate(-0.51)" fill="#e1e1e1"/>
<path d="M259.15,343.28c0,.15-10.79.37-24.09.49s-24.09.09-24.09-.06,10.78-.37,24.09-.49S259.15,343.13,259.15,343.28Z" fill="#e1e1e1"/>
<path d="M297.65,352.83c0,.15-19.38.44-43.29.66s-43.3.25-43.3.1,19.38-.44,43.29-.65S297.65,352.68,297.65,352.83Z" fill="#e1e1e1"/>
<path d="M296.69,359.9c0,.15-19.15.44-42.78.65s-42.79.26-42.79.1,19.15-.44,42.79-.65S296.69,359.75,296.69,359.9Z" fill="#e1e1e1"/>
<path d="M261.7,367c0,.15-11.3.37-25.26.49s-25.26.1-25.26-.05,11.3-.37,25.26-.5S261.7,366.79,261.7,367Z" fill="#e1e1e1"/>
<rect x="165.42" y="394.24" width="32.26" height="32.26" transform="translate(-3.61 1.62) rotate(-0.51)" fill="#e1e1e1"/>
<path d="M259.62,397c0,.15-10.78.37-24.08.49s-24.1.09-24.1-.06,10.78-.37,24.09-.49S259.62,396.87,259.62,397Z" fill="#e1e1e1"/>
<path d="M298.13,406.57c0,.15-19.39.45-43.3.66s-43.3.26-43.3.1,19.38-.44,43.3-.65S298.12,406.42,298.13,406.57Z" fill="#e1e1e1"/>
<path d="M297.17,413.64c0,.15-19.16.44-42.78.65s-42.8.26-42.8.11,19.15-.45,42.79-.66S297.17,413.49,297.17,413.64Z" fill="#e1e1e1"/>
<path d="M262.18,420.69c0,.15-11.31.37-25.26.49s-25.27.1-25.27-.05,11.31-.37,25.26-.5S262.18,420.53,262.18,420.69Z" fill="#e1e1e1"/>
<rect x="116.86" y="331.68" width="32.26" height="32.26" transform="translate(-3.06 1.19) rotate(-0.51)" fill="#e1e1e1"/>
<path d="M677.75,430.06l-17.93-.13a4.45,4.45,0,0,0-4.38,4.51l0,3.24a4.45,4.45,0,0,1-4.39,4.51L616.09,442a4.46,4.46,0,0,1-4.32-4.57l0-3.25a4.45,4.45,0,0,0-4.33-4.56l-6.3-.05-15.69-.11a14.09,14.09,0,0,0-14.21,14L570,588.8A14.1,14.1,0,0,0,584,603l92.28.64a14.08,14.08,0,0,0,14.2-14l1.31-145.42A14.08,14.08,0,0,0,677.75,430.06Z" fill="#fff" stroke="#d1d3d4" stroke-miterlimit="10"/>
<path d="M677.75,430.06l1.5.07a14.83,14.83,0,0,1,4.24,1.16,14.18,14.18,0,0,1,8.32,13.64c-.12,14.72-.29,36-.5,62.25-.12,13.14-.24,27.53-.37,43q-.11,11.6-.21,24,0,6.17-.11,12.52a25.58,25.58,0,0,1-.47,6.39,14.19,14.19,0,0,1-3,5.75,14.8,14.8,0,0,1-5.3,3.88,15.57,15.57,0,0,1-6.55,1.1l-13.49-.09L634,603.47l-28.83-.2-14.75-.1c-2.48,0-4.95,0-7.46-.1a14.24,14.24,0,0,1-11.86-8.26,15.43,15.43,0,0,1-1.29-7.33q.08-7.43.13-14.75c.09-9.76.18-19.39.27-28.84.17-18.91.34-37.15.49-54.53q.12-13,.24-25.39.06-6.17.11-12.16,0-3,.06-5.94a23.32,23.32,0,0,1,.46-5.84,14.18,14.18,0,0,1,12-10.62c1.84-.2,3.65-.08,5.44-.1l10.54.08,5.1,0,2.51,0a4.49,4.49,0,0,1,2.43.61,4.73,4.73,0,0,1,2.26,4.18c0,.81,0,1.6,0,2.39a6.08,6.08,0,0,0,.25,2.3,4.3,4.3,0,0,0,3.24,2.84c1.48.15,3,.06,4.48.1l16.72.13,14.54.11a4.38,4.38,0,0,0,4.21-3.95c.06-1,0-2,0-3a5.71,5.71,0,0,1,.49-2.79,4.43,4.43,0,0,1,4.27-2.52l4.57,0,7.15.06,5.9.08h-5.9l-7.16,0-4.56,0a4.31,4.31,0,0,0-4.16,2.46,5.47,5.47,0,0,0-.47,2.74c0,1,0,1.95,0,3a4.51,4.51,0,0,1-4.34,4.08l-14.55-.08-16.72-.11c-1.49,0-3,.06-4.52-.1a4.52,4.52,0,0,1-3.4-3,6.17,6.17,0,0,1-.27-2.37c0-.79,0-1.59,0-2.39a4.48,4.48,0,0,0-2.16-4,4.2,4.2,0,0,0-2.31-.57l-2.51,0-5.1,0-10.54-.07c-1.79,0-3.62-.1-5.41.09a14,14,0,0,0-11.83,10.44,24.07,24.07,0,0,0-.45,5.78c0,2,0,3.94,0,5.94q0,6-.1,12.16-.12,12.36-.23,25.39c-.15,17.38-.31,35.62-.48,54.53q-.12,14.19-.25,28.84c0,4.89-.09,9.8-.13,14.76a15,15,0,0,0,1.26,7.19,13.9,13.9,0,0,0,11.6,8.07c2.46.12,5,.06,7.43.1l14.75.11,28.84.2,27.83.2,13.49.1a15.22,15.22,0,0,0,6.43-1.08,14.44,14.44,0,0,0,5.2-3.8,13.74,13.74,0,0,0,2.91-5.63,25.73,25.73,0,0,0,.47-6.32q.06-6.36.11-12.53.12-12.35.23-23.94c.14-15.45.28-29.84.4-43,.26-26.26.47-47.53.61-62.24a14.11,14.11,0,0,0-8.23-13.58,14.78,14.78,0,0,0-4.21-1.18Z" fill="#fff" stroke="#d1d3d4" stroke-miterlimit="10"/>
<rect x="582.13" y="471.53" width="97.51" height="67.71" transform="translate(1.21 -1.51) rotate(0.14)" fill="#e1e1e1"/>
<circle cx="630.88" cy="505.25" r="14.15" transform="translate(-86.96 133.78) rotate(-11.33)" fill="#fff"/>
<polygon points="627.4 505.24 627.42 498.87 632.93 502.07 638.45 505.27 632.92 508.44 627.39 511.62 627.4 505.24" fill="#e1e1e1"/>
<path d="M592.58,549.27v-1.09a.13.13,0,0,1,.19-.11l.94.55.95.55a.13.13,0,0,1,0,.22l-.95.54-1,.54a.13.13,0,0,1-.19-.11Z" fill="#e1e1e1"/>
<path d="M601.43,548.44h-.82a.12.12,0,0,0-.13.12V550a.13.13,0,0,0,.13.13h.82l1.26,1.27v-4.24Z" fill="#e1e1e1"/>
<path d="M595.42,550.59h0a.22.22,0,0,1-.22-.22v-2.18a.21.21,0,0,1,.21-.22h0a.22.22,0,0,1,.22.22v2.18A.22.22,0,0,1,595.42,550.59Z" fill="#e1e1e1"/>
<path d="M603.21,548v2.65a1.41,1.41,0,0,0,.92-1.32A1.43,1.43,0,0,0,603.21,548Z" fill="#e1e1e1"/>
<path d="M603.21,547v.55a1.86,1.86,0,0,1,0,3.57v.55a2.39,2.39,0,0,0,0-4.67Z" fill="#e1e1e1"/>
<path d="M610.05,548.44V551h-.36v-2.25h-.58v-.32Z" fill="#e1e1e1"/>
<path d="M610.6,549.3a.25.25,0,1,1,.25.25A.25.25,0,0,1,610.6,549.3Zm0,1.48a.25.25,0,1,1,.25.25A.24.24,0,0,1,610.6,550.78Z" fill="#e1e1e1"/>
<path d="M611.44,549.73c0-.84.45-1.31,1-1.31s1,.48,1,1.31-.45,1.32-1,1.32S611.44,550.57,611.44,549.73Zm1.73,0c0-.65-.28-1-.68-1s-.68.33-.68,1,.27,1,.68,1S613.17,550.39,613.17,549.73Z" fill="#e1e1e1"/>
<path d="M614.67,548.45V551h-.37v-2.25h-.58v-.32Z" fill="#e1e1e1"/>
<path d="M617.15,547.94h.32l-1.22,3.45h-.32Z" fill="#e1e1e1"/>
<path d="M620.52,550.31c0,.46-.4.75-1,.75s-1-.29-1-.76a.64.64,0,0,1,.45-.62.59.59,0,0,1-.36-.55c0-.43.38-.7.93-.7s.93.27.93.7a.59.59,0,0,1-.36.56A.63.63,0,0,1,620.52,550.31Zm-.37,0c0-.29-.25-.46-.65-.46s-.65.17-.65.45.24.47.64.47S620.15,550.59,620.15,550.3Zm-1.21-1.16c0,.26.21.42.56.42s.57-.16.57-.41-.23-.42-.57-.42S618.94,548.89,618.94,549.14Z" fill="#e1e1e1"/>
<path d="M620.85,549.32a.25.25,0,0,1,.25-.25.25.25,0,0,1,.24.25.25.25,0,1,1-.49,0Zm0,1.48a.25.25,0,0,1,.49,0,.25.25,0,0,1-.24.25A.25.25,0,0,1,620.85,550.8Z" fill="#e1e1e1"/>
<path d="M621.69,549.75c0-.83.45-1.31,1-1.31s1,.48,1,1.32-.46,1.31-1,1.31S621.69,550.59,621.69,549.75Zm1.73,0c0-.66-.28-1-.68-1s-.68.33-.68,1,.27,1,.68,1S623.42,550.41,623.42,549.76Z" fill="#e1e1e1"/>
<path d="M624.14,549.76c0-.84.45-1.31,1.05-1.31s1,.48,1,1.31-.45,1.32-1.05,1.32S624.13,550.6,624.14,549.76Zm1.72,0c0-.65-.27-1-.67-1s-.69.33-.69,1,.28,1,.68,1S625.86,550.42,625.86,549.76Z" fill="#e1e1e1"/>
<path d="M583.21,550.57h0a.43.43,0,0,1-.43-.43v-2.26a.44.44,0,0,1,.44-.43h0a.43.43,0,0,1,.43.43v2.26A.42.42,0,0,1,583.21,550.57Z" fill="#e1e1e1"/>
<path d="M585.17,550.58h0a.43.43,0,0,1-.43-.43v-2.27a.43.43,0,0,1,.43-.43h0a.44.44,0,0,1,.43.44v2.26A.44.44,0,0,1,585.17,550.58Z" fill="#e1e1e1"/>
<path d="M679.08,545.37,583,545.14a.92.92,0,0,1-.92-.93h0a.92.92,0,0,1,.92-.92l96.13.23a.93.93,0,0,1,.92.93h0A.93.93,0,0,1,679.08,545.37Z" fill="#e6e7e8"/>
<path d="M618.29,545.23,583,545.14a.92.92,0,0,1-.92-.93h0a.92.92,0,0,1,.92-.92l35.33.09a.8.8,0,0,1,.8.8v.24A.8.8,0,0,1,618.29,545.23Z" fill="#e1e1e1"/>
<path d="M620,544.3a1.77,1.77,0,1,1-3.53,0,1.77,1.77,0,0,1,3.53,0Z" fill="#e1e1e1"/>
<path d="M679.25,562.41c0,.21-21.49.34-48,.28s-48-.3-48-.51,21.47-.35,48-.28S679.25,562.19,679.25,562.41Z" fill="#e1e1e1"/>
<path d="M679.22,571.89c0,.22-21.48.34-48,.28s-48-.29-48-.51,21.48-.34,48-.28S679.22,571.67,679.22,571.89Z" fill="#e1e1e1"/>
<path d="M679.2,581.37c0,.22-21.48.35-48,.28s-48-.29-48-.5,21.48-.35,48-.28S679.2,581.16,679.2,581.37Z" fill="#e1e1e1"/>
<path d="M678.36,168.27l-17.93-.09a4.45,4.45,0,0,0-4.37,4.52l0,3.24a4.43,4.43,0,0,1-4.37,4.52l-34.94-.16a4.45,4.45,0,0,1-4.34-4.56l0-3.24a4.45,4.45,0,0,0-4.34-4.56l-6.3,0-15.69-.07a14.1,14.1,0,0,0-14.18,14L571,407.49a14.08,14.08,0,0,0,14,14.13l92.28.43a14.09,14.09,0,0,0,14.17-14l1-225.65A14.08,14.08,0,0,0,678.36,168.27Z" fill="#fff" stroke="#d1d3d4" stroke-miterlimit="10"/>
<path d="M678.36,168.27h.48a12.25,12.25,0,0,1,1.43.12,13.34,13.34,0,0,1,5.27,1.84,14.15,14.15,0,0,1,5.88,6.82,14.49,14.49,0,0,1,1,5.71q0,3.12,0,6.64c-.07,18.77-.16,45.91-.28,79.44s-.29,73.48-.47,117.82q0,8.31-.07,16.83c-.08,2.82.25,5.74-.62,8.55a13.93,13.93,0,0,1-4.86,7.11,14.15,14.15,0,0,1-8.16,3c-2.94.05-5.88,0-8.84,0l-17.93-.08-36.8-.17-18.82-.08-9.51-.05a14.89,14.89,0,0,1-9.14-2.54,14.35,14.35,0,0,1-5.56-7.69,15.63,15.63,0,0,1-.58-4.75c0-1.59,0-3.17,0-4.75q0-9.48.08-18.83.09-18.69.16-36.81c.11-24.13.21-47.41.3-69.59s.2-43.24.29-63q.06-14.81.13-28.54c.05-2.27-.16-4.58.44-6.79a14,14,0,0,1,3-5.9,14.64,14.64,0,0,1,5.27-3.81,15.46,15.46,0,0,1,6.27-1.09l12.27.06,5.91,0,2.89,0a4.47,4.47,0,0,1,2.74.84,4.7,4.7,0,0,1,1.65,2.3,8.16,8.16,0,0,1,.24,2.77,24.46,24.46,0,0,0,0,2.72,4.43,4.43,0,0,0,1.1,2.34,4.22,4.22,0,0,0,2.2,1.3,15.7,15.7,0,0,0,2.57.11l5.09,0,18.56.09,8.19,0c.65,0,1.3,0,1.92,0a4.23,4.23,0,0,0,1.73-.62,4.51,4.51,0,0,0,2-2.85,27.88,27.88,0,0,0,.12-3.4,5.55,5.55,0,0,1,.63-3.13,4.39,4.39,0,0,1,2.27-2,7.31,7.31,0,0,1,2.8-.28l9.13.06,7.53.07h-7.53l-9.13,0a7,7,0,0,0-2.76.27,4.28,4.28,0,0,0-2.21,1.91,5.51,5.51,0,0,0-.62,3.08,24.78,24.78,0,0,1-.11,3.42,4.58,4.58,0,0,1-2,2.94,4.28,4.28,0,0,1-1.78.64c-.64.06-1.28,0-1.93,0l-8.19,0-18.56-.07-5.09,0a15.33,15.33,0,0,1-2.61-.11,4.41,4.41,0,0,1-2.3-1.35,4.62,4.62,0,0,1-1.15-2.44,25.3,25.3,0,0,1-.06-2.75,7.93,7.93,0,0,0-.23-2.71,4.34,4.34,0,0,0-1.58-2.19c-1.53-1.2-3.61-.7-5.51-.82l-5.91,0-12.27,0a15,15,0,0,0-6.18,1.07,14.4,14.4,0,0,0-5.18,3.75,13.81,13.81,0,0,0-3,5.81c-.59,2.15-.38,4.44-.43,6.73,0,9.15-.07,18.68-.11,28.54-.08,19.72-.17,40.79-.25,63s-.19,45.46-.29,69.59q-.08,18.1-.15,36.81,0,9.34-.08,18.83c0,1.58,0,3.16,0,4.75a14.93,14.93,0,0,0,.56,4.66,14.1,14.1,0,0,0,5.44,7.52,14.59,14.59,0,0,0,9,2.49l9.51,0,18.82.09,36.8.17,17.93.09c3,0,5.92.06,8.83,0a13.78,13.78,0,0,0,8-2.94,13.74,13.74,0,0,0,4.76-7c.85-2.73.52-5.63.61-8.46q0-8.52.07-16.83c.2-44.34.38-84.28.53-117.82s.3-60.67.39-79.44c-.1-4.66.53-8.95-1-12.32a14.08,14.08,0,0,0-5.82-6.79,13.53,13.53,0,0,0-5.25-1.87,12.63,12.63,0,0,0-1.42-.13Z" fill="#fff" stroke="#d1d3d4" stroke-miterlimit="10"/>
<path d="M676.62,201c0,.22-19.49.4-43.52.4s-43.54-.18-43.54-.4,19.49-.4,43.54-.4S676.62,200.74,676.62,201Z" fill="#fff" stroke="#d1d3d4" stroke-miterlimit="10"/>
<rect x="593.61" y="346.24" width="79.11" height="54.93" fill="#e1e1e1"/>
<path d="M513.87,223.45H487a6.68,6.68,0,0,0-6.53,6.81v4.87a6.67,6.67,0,0,1-6.52,6.82l-52.35,0a6.68,6.68,0,0,1-6.52-6.83v-4.87a6.68,6.68,0,0,0-6.52-6.82h-9.45l-23.51,0a21.14,21.14,0,0,0-21.14,21.13l-.07,339a21.14,21.14,0,0,0,21.12,21.14l138.25.08a21.13,21.13,0,0,0,21.15-21.13l.07-339A21.14,21.14,0,0,0,513.87,223.45Z" fill="#fff" stroke="#d1d3d4" stroke-miterlimit="10"/>
<path d="M513.87,223.45l.72,0a16.06,16.06,0,0,1,2.14.17,21,21,0,0,1,12.75,6.65,21.18,21.18,0,0,1,4,6.31,21.94,21.94,0,0,1,1.58,8.58c0,3.12,0,6.44,0,10,0,28.16,0,68.9.07,119.24s0,110.29,0,176.85V582.9a22.39,22.39,0,0,1-.81,6.45,21.36,21.36,0,0,1-2.7,6,22.92,22.92,0,0,1-4.4,4.88,21.38,21.38,0,0,1-12.2,4.74c-4.44.13-8.84,0-13.29.06H474.89l-55.24,0H377.13a22.39,22.39,0,0,1-13.77-3.8A21.67,21.67,0,0,1,355,589.55a23.38,23.38,0,0,1-.88-7.15v-7.12q0-14.24,0-28.26,0-28.07,0-55.25c0-36.23,0-71.17,0-104.46s0-64.91,0-94.51q0-22.21,0-42.84c0-1.72,0-3.43,0-5.13,0-.85.07-1.71.12-2.56s.21-1.7.43-2.52a21.55,21.55,0,0,1,4.44-8.95,22,22,0,0,1,7.84-5.86,22.25,22.25,0,0,1,9.4-1.78l18.42,0H408.1a6.76,6.76,0,0,1,4.16,1.16,7,7,0,0,1,2.58,3.4,11.42,11.42,0,0,1,.43,4.17V234a16.68,16.68,0,0,0,.06,2,6.77,6.77,0,0,0,1.58,3.54,6.18,6.18,0,0,0,3.23,2,6.78,6.78,0,0,0,1.91.19h9.57l27.87,0,12.29,0c1,0,2,0,2.88,0a6.33,6.33,0,0,0,2.58-.91,6.66,6.66,0,0,0,3-4.26,11.57,11.57,0,0,0,.17-2.56v-2.53a13.55,13.55,0,0,1,.12-2.47,7.07,7.07,0,0,1,.79-2.26,6.66,6.66,0,0,1,3.38-3,10.46,10.46,0,0,1,4.19-.45l13.71,0,8.43,0,2.88,0-2.88,0-8.43,0-13.71,0a10.37,10.37,0,0,0-4.12.45,6.48,6.48,0,0,0-3.27,2.9,7.19,7.19,0,0,0-.77,2.2,15,15,0,0,0-.1,2.43c0,.83,0,1.67,0,2.53a12.23,12.23,0,0,1-.17,2.61,6.92,6.92,0,0,1-3.06,4.42,6.47,6.47,0,0,1-2.69,1c-1,.09-1.92,0-2.9,0H422.05a7.47,7.47,0,0,1-2-.19,6.63,6.63,0,0,1-3.42-2.12,7,7,0,0,1-1.67-3.72,17.88,17.88,0,0,1-.07-2.06v-2.06a11,11,0,0,0-.41-4.05,6.64,6.64,0,0,0-2.45-3.21,6.47,6.47,0,0,0-3.94-1.09H376.47a21.91,21.91,0,0,0-9.22,1.75,21.6,21.6,0,0,0-7.68,5.75,21.16,21.16,0,0,0-4.34,8.77c-.21.81-.28,1.64-.42,2.47s-.1,1.67-.12,2.51c0,1.7,0,3.41,0,5.13V292.8c0,29.6,0,61.23,0,94.51V491.77q0,27.16,0,55.25V582.4a22.54,22.54,0,0,0,.86,7,21,21,0,0,0,8.14,11.24,21.68,21.68,0,0,0,13.43,3.7H391.4l28.25,0,55.24,0,26.91,0c4.44,0,8.89.07,13.25,0a20.81,20.81,0,0,0,11.88-4.61,22.52,22.52,0,0,0,4.29-4.75,21.22,21.22,0,0,0,2.63-5.8,22.27,22.27,0,0,0,.79-6.3v-6.4q0-12.79,0-25.27c0-66.56.07-126.5.1-176.85s.09-91.08.12-119.24c0-3.52,0-6.84,0-10a21.67,21.67,0,0,0-1.54-8.52,20.72,20.72,0,0,0-4-6.27,21,21,0,0,0-12.65-6.69,15.06,15.06,0,0,0-2.13-.19Z" fill="#fff" stroke="#d1d3d4" stroke-miterlimit="10"/>
<path d="M518.17,260c0,.09-3.5.19-7.81.22s-7.8,0-7.8-.1,3.49-.19,7.8-.22S518.16,259.85,518.17,260Z" fill="#fff" stroke="#d1d3d4" stroke-miterlimit="10"/>
<path d="M518.2,263.94c0,.09-3.49.19-7.8.23s-7.81,0-7.81-.1,3.5-.2,7.81-.23S518.2,263.85,518.2,263.94Z" fill="#fff" stroke="#d1d3d4" stroke-miterlimit="10"/>
<path d="M518.23,267.93c0,.09-3.49.19-7.8.23s-7.8,0-7.8-.1,3.49-.19,7.8-.23S518.23,267.84,518.23,267.93Z" fill="#fff" stroke="#d1d3d4" stroke-miterlimit="10"/>
<path d="M369.7,270.49l.33,0,.9,0,3.33-.08-.09.09c0-.74,0-1.54,0-2.41,0-.45,0-.88,0-1.39a1.28,1.28,0,0,1,1.12-1c.53,0,1,0,1.59,0a1.29,1.29,0,0,1,1.09,1.29c0,1.12,0,2.3,0,3.52l-.16-.15,4.21,0-.16.16c0-1.69,0-3.44-.05-5.24,0-.45,0-.89,0-1.33a1.33,1.33,0,0,0-.59-1L379.38,261l-1.77-1.74-.86-.85c-.3-.29-.53-.58-.87-.65a1.12,1.12,0,0,0-1,.18c-.26.22-.53.52-.79.77l-1.5,1.52c-.95,1-1.94,1.89-2.66,2.74a3,3,0,0,0-.21,1.57V266c0,.91,0,1.7,0,2.38s0,1.12,0,1.53a3.56,3.56,0,0,1,0,.55s0-.17,0-.51,0-.9-.05-1.5,0-1.49-.05-2.4c0-.48,0-1,0-1.51,0-.27,0-.55,0-.83a1.73,1.73,0,0,1,.23-.88c.78-.95,1.71-1.79,2.66-2.81.49-.49,1-1,1.5-1.53.27-.27.49-.53.81-.81a1.47,1.47,0,0,1,1.22-.24,2.24,2.24,0,0,1,1,.73l.86.84,1.78,1.74,1.84,1.81a3.94,3.94,0,0,1,.47.51,1.48,1.48,0,0,1,.22.71c0,.44,0,.89,0,1.34,0,1.79,0,3.54,0,5.24v.16H382l-4.2,0h-.16v-.16c0-1.22,0-2.39,0-3.52a1,1,0,0,0-.84-1c-.49,0-1.06,0-1.53,0a1,1,0,0,0-.91.82c0,.42,0,.92,0,1.34v2.52h-.1l-3.38,0H370Z" fill="#fff" stroke="#d1d3d4" stroke-miterlimit="10"/>
<rect x="378.33" y="486.82" width="32.26" height="32.26" fill="#e1e1e1"/>
<path d="M472.64,490.29c0,.15-10.78.28-24.09.28s-24.09-.13-24.09-.28,10.79-.27,24.09-.27S472.64,490.14,472.64,490.29Z" fill="#e1e1e1"/>
<path d="M511.06,500.18c0,.15-19.39.27-43.3.27s-43.3-.12-43.3-.27,19.38-.28,43.3-.28S511.06,500,511.06,500.18Z" fill="#e1e1e1"/>
<path d="M510,507.24c0,.15-19.16.28-42.79.28s-42.79-.13-42.79-.28,19.16-.27,42.79-.27S510,507.09,510,507.24Z" fill="#e1e1e1"/>
<path d="M475,514c0,.15-11.31.27-25.26.27s-25.27-.12-25.27-.27,11.31-.28,25.27-.28S475,513.83,475,514Z" fill="#e1e1e1"/>
<rect x="378.33" y="539.32" width="32.26" height="32.26" fill="#e1e1e1"/>
<path d="M472.64,542.79c0,.15-10.78.28-24.09.28s-24.09-.13-24.09-.28,10.79-.27,24.09-.27S472.64,542.64,472.64,542.79Z" fill="#e1e1e1"/>
<path d="M511.06,552.68c0,.15-19.39.27-43.3.27s-43.3-.12-43.3-.27,19.38-.27,43.3-.27S511.06,552.53,511.06,552.68Z" fill="#e1e1e1"/>
<path d="M510,559.74c0,.15-19.16.28-42.79.28s-42.79-.13-42.79-.28,19.16-.27,42.79-.27S510,559.59,510,559.74Z" fill="#e1e1e1"/>
<path d="M475,566.48c0,.15-11.31.27-25.26.27s-25.27-.12-25.27-.27,11.31-.28,25.27-.28S475,566.33,475,566.48Z" fill="#e1e1e1"/>
<rect x="408.6" y="304.16" width="74.68" height="99.36" transform="translate(89.62 797.8) rotate(-89.68)" fill="#e1e1e1"/>
<polygon points="394.76 390.9 429.73 344.68 451.06 373.84 465.73 358.39 494.12 391.46 394.76 390.9" fill="#e6e7e8"/>
<path d="M460.38,339.16a7.83,7.83,0,1,1-7.78-7.87A7.83,7.83,0,0,1,460.38,339.16Z" fill="#e6e7e8"/>
<path d="M509.1,405.65c0,.22-28.86.39-64.44.39s-64.46-.17-64.46-.39,28.85-.39,64.46-.39S509.1,405.43,509.1,405.65Z" fill="#e1e1e1"/>
<path d="M509.1,414c0,.22-28.86.39-64.44.39s-64.46-.17-64.46-.39,28.85-.39,64.46-.39S509.1,413.82,509.1,414Z" fill="#e1e1e1"/>
<path d="M465.66,454.26h-42a11,11,0,0,1-11-11h0a11,11,0,0,1,11-11h42a11,11,0,0,1,11,11h0A11,11,0,0,1,465.66,454.26Z" fill="#e1e1e1"/>
<path d="M533.18,465.2c0,.22-39.73.4-88.73.4s-88.74-.18-88.74-.4,39.72-.39,88.74-.39S533.18,465,533.18,465.2Z" fill="#e1e1e1"/>
<path d="M481.22,298c0,.22-16.37.39-36.57.39s-36.56-.17-36.56-.39,16.36-.4,36.56-.4S481.22,297.82,481.22,298Z" fill="#e1e1e1"/>
<path d="M488.54,443.24a2.4,2.4,0,1,1-2.4-2.4A2.41,2.41,0,0,1,488.54,443.24Z" fill="#2f2e41" data-secondary="true"/>
<path d="M585.49,285.31l-.58,0-1.73,0-6.65.07-24.78.12.26-.26c0,23.21,0,57.08,0,94.73-.07,23.1-.13,44.77-.18,63.2v.34h-.34l-47.32-.14-13.28-.09-3.5-.06-.89,0a.16.16,0,1,1,0-.06l.89,0,3.5-.06,13.28-.09,47.32-.14-.35.34c0-18.43,0-40.1.08-63.2.12-37.65.24-71.52.31-94.73V285h.27l24.78.12,6.65.07,1.73,0A2.39,2.39,0,0,1,585.49,285.31Z" fill="#2f2e41" data-secondary="true"/>
<circle cx="633.17" cy="373.61" r="11.48" fill="#fff"/>
<polygon points="630.34 373.61 630.34 368.44 634.82 371.02 639.3 373.61 634.82 376.19 630.34 378.78 630.34 373.61" fill="#e1e1e1"/>
<rect x="602.36" y="204.32" width="58.96" height="78.44" transform="translate(384.78 874.01) rotate(-89.68)" fill="#e4e4e4"/>
<polygon points="591.43 272.8 619.04 236.31 635.88 259.33 647.46 247.13 669.88 273.24 591.43 272.8" fill="#fff"/>
<path d="M643.24,232a6.18,6.18,0,1,1-6.14-6.21A6.18,6.18,0,0,1,643.24,232Z" fill="#fff"/>
<rect x="601.6" y="284.5" width="60.72" height="4.06" fill="#e1e1e1"/>
<path d="M675.49,300.22c0,.22-19.49.4-43.53.4s-43.53-.18-43.53-.4,19.49-.4,43.53-.4S675.49,300,675.49,300.22Z" fill="#e1e1e1"/>
<path d="M675.49,311.34c0,.22-19.49.4-43.53.4s-43.53-.18-43.53-.4,19.49-.4,43.53-.4S675.49,311.12,675.49,311.34Z" fill="#e1e1e1"/>
<path d="M675.49,322.46c0,.22-19.49.4-43.53.4s-43.53-.18-43.53-.4,19.49-.4,43.53-.4S675.49,322.24,675.49,322.46Z" fill="#e1e1e1"/>
<path d="M675.49,333.58c0,.22-19.49.4-43.53.4s-43.53-.18-43.53-.4,19.49-.4,43.53-.4S675.49,333.36,675.49,333.58Z" fill="#e1e1e1"/>
<path d="M587.89,285.31a2.4,2.4,0,1,1-2.4-2.4A2.4,2.4,0,0,1,587.89,285.31Z" fill="#2f2e41" data-secondary="true"/>
<path d="M635.48,408.65a2.33,2.33,0,1,1-2.31-2A2.19,2.19,0,0,1,635.48,408.65Z" fill="#2f2e41" data-secondary="true"/>
<path d="M635.48,462.67a2.33,2.33,0,1,1-2.31-2.05A2.19,2.19,0,0,1,635.48,462.67Z" fill="#2f2e41" data-secondary="true"/>
<path d="M633.17,462.67c-.22,0-.4-12.09-.4-27s.18-27,.4-27,.39,12.09.39,27S633.39,462.67,633.17,462.67Z" fill="#2f2e41" data-secondary="true"/>
<path d="M444.44,279.06a2.18,2.18,0,0,1,0-.41c0-.31,0-.7,0-1.2,0-1.11,0-2.67-.07-4.67,0-4.12-.06-10-.11-17.42,0-14.89-.08-35.72-.14-59.66l.38.38H418L340.36,196l-23.53-.13-6.4-.07-1.67,0a3,3,0,0,1-.56,0,2.2,2.2,0,0,1,.56,0l1.67,0,6.4-.08,23.53-.12L418,195.3l26.43,0h.39v.38c-.06,23.94-.11,44.77-.14,59.66-.05,7.39-.09,13.3-.11,17.42,0,2-.05,3.56-.07,4.67,0,.5,0,.89,0,1.2A1.2,1.2,0,0,1,444.44,279.06Z" fill="#2f2e41" data-secondary="true"/>
<path d="M446.84,279.06a2.4,2.4,0,1,1-2.4-2.39A2.4,2.4,0,0,1,446.84,279.06Z" fill="#2f2e41" data-secondary="true"/>
<path d="M310.59,195.7a2.4,2.4,0,1,1-2.39-2.4A2.39,2.39,0,0,1,310.59,195.7Z" fill="#2f2e41" data-secondary="true"/>
<path d="M263.7,199.66l7.56,9.83s3.66,5.66.8,6.87c-2.51,1.06-4.15-2.11-4.15-2.11s-1.6-7.22-4.73-5.45c-.43.25.33,5.37.75,8a3.77,3.77,0,0,0,1.42,2.39l8.31,6.37a10.85,10.85,0,0,0,5.31,2.15l2.95.34,2.43,4.86,13.43-5.47-10.69-13.83-5.74-8.78a3.44,3.44,0,0,0-3.14-.75l-1.33.34-1-1a2.29,2.29,0,0,0-2.25-.59l-.82.23-2.24-2.23c-.75-.74-5.86-5.51-6.82-5.09C263.76,195.72,261.83,197.24,263.7,199.66Z" fill="#f6b297"/>
<path d="M278.91,209a9.38,9.38,0,0,0-.77-1.1,4.91,4.91,0,0,0-2.8-1.54,15,15,0,0,1-2.23-2.47,4.11,4.11,0,0,1-.67-1.19s.29.43.81,1.09a19,19,0,0,0,2.21,2.35c.27.09.57.16.88.26a4.57,4.57,0,0,1,.8.39,4.33,4.33,0,0,1,1.13,1,3.51,3.51,0,0,1,.53.86A1.17,1.17,0,0,1,278.91,209Z" fill="#f6b297"/>
<path d="M280.47,207a2.37,2.37,0,0,0-.46-.52,1.71,1.71,0,0,0-1.58-.28l-.07,0-.06-.05-.16-.18a15.17,15.17,0,0,1-1.79-2.09,15,15,0,0,1,2,1.92l.16.18-.12,0a1.79,1.79,0,0,1,1.76.38C280.47,206.68,280.5,207,280.47,207Z" fill="#f6b297"/>
<polygon points="265.11 628.14 260.35 671.6 283.75 674.63 288.6 631.1 265.11 628.14" fill="#0071f2" data-primary="true"/>
<polygon points="260.68 668.6 284.09 671.55 283.75 674.63 260.35 671.6 260.68 668.6" fill="#2f2e41" data-secondary="true"/>
<g opacity="0.3">
<polygon points="287.21 643.49 286.68 648.28 263.25 645.13 263.64 641.53 287.21 643.49"/>
</g>
<polygon points="231.43 631.02 233.28 674.69 256.86 674.16 255.1 630.4 231.43 631.02" fill="#0071f2" data-primary="true"/>
<polygon points="233.15 671.68 256.74 671.07 256.86 674.16 233.28 674.69 233.15 671.68" fill="#2f2e41" data-secondary="true"/>
<path d="M257.84,535l-.92-119.54H210.47s-3.67,29.67-1.92,41.63,14.11,78.08,14.11,78.08,4,87.78,6,110.33l29-2.62Z" fill="#2f2e41" data-secondary="true"/>
<path d="M286.27,390.22A58.78,58.78,0,0,1,304,423.37c3.23,20.8-6.53,104.07-6.53,104.07L289.2,642.86H260.53l.92-111.13-5-82.78-3.22-26.18Z" fill="#2f2e41" data-secondary="true"/>
<path d="M223.53,266.52s-20.89,11.43-27,14.11l8.35,40L218,368.5l-8.81,50.55s31,5.47,46.2,3.51c20.8-2.7,47.31-10.35,47.31-10.35l-20.64-61.62,5.28-42.54-8.87-35.87-21.6-2.56Z" fill="#0071f2" data-primary="true"/>
<path d="M297,261.65l-16.18-32.38,13-8.33s16.25,16.76,19.33,20c0,0,18.7,17.25,13.82,25.56a54.63,54.63,0,0,1-10.72,12.54Z" fill="#0071f2" data-primary="true"/>
<path d="M196.51,280.63c-.28.85-43.51,60.63-45.82,67-.13.35-.25.72-.37,1.09a24.71,24.71,0,0,0,5.43,23.75l35.63,39.76,15.58-18-24.78-43.68,23.67-26.14Z" fill="#0071f2" data-primary="true"/>
<path d="M223.61,396.87c-1.45.09-4.08,2.08-5.25,3a2,2,0,0,1-1.37.43h0a2,2,0,0,1-1.76-1.4l-1.54-5.2a4.81,4.81,0,0,0-3.75,2.36L208.22,399l-3-2.85L191.39,412s5.46,5.89,8.92,6,19.74-13.27,19.74-13.27l4.31-3.8S227.84,396.61,223.61,396.87Z" fill="#f6b297"/>
<path d="M268.53,271l12.26.55,17.47-13.36L323,271.76s-11.13,11.9-21.61,24.1c-8.48,9.86-14.52,16-14.52,16Z" fill="#0071f2" data-primary="true"/>
<path d="M226,278.62l30.67.44-2.87-27.73s2.26,1.14,2.71-10.21,1.5-30.64,1.5-30.64h0a39.51,39.51,0,0,0-39.8,3.91l-1.72,1.25Z" fill="#f6b297"/>
<path d="M219.64,229.7c-.19-.09-7.74-2.52-7.7,5.25s7.83,6.14,7.84,5.91S219.64,229.7,219.64,229.7Z" fill="#f6b297"/>
<path d="M256.15,229.08c.2-.08,7.17-1.76,6.71,6s-8.15,5.69-8.15,5.47S256.15,229.08,256.15,229.08Z" fill="#f6b297"/>
<path d="M237.93,196.87s-10.58-.39-14.37,1.55c-6.29,3.21-11.17,12.17-11.27,23.23s4.93,26.09,13.05,33.5,14.54,8.78,14.54,8.78,17.21-9.38,19.13-23.1,3.23-26.94-2.15-33.59S241.83,197,237.93,196.87Z" fill="#2f2e41" data-secondary="true"/>
<path d="M213.73,228.8c-.62-7-1.22-14.3,1-21s8-12.77,15-13c2.26-.09,4.54.41,6.77,0a28.07,28.07,0,0,0,5.49-2,14.24,14.24,0,0,1,9.8-.61c3.16,1.09,5.8,4,5.91,7.35,0,1.37-.31,2.8.17,4.08s1.75,2.17,2.62,3.28a8.76,8.76,0,0,1,1.56,6.31,26.38,26.38,0,0,1-1.79,6.41L254.5,235" fill="#2f2e41" data-secondary="true"/>
<path d="M231.45,232.73a14,14,0,0,1,20,11.07c.5,4.6.5,5.34,3.47,8.88,1.83,2.18,3.6,2,5.75,3.92a8.61,8.61,0,0,1,2,10.1c5.56-.27,10.76-.63,12.66,4.61-8.31-1.72-16.61,6-24.92,4.32-2.63-.54-5.35-1.12-7.49-2.74-2.45-1.85-3.79-4.8-5-7.61q-3.33-7.59-6.68-15.19c-1.5-3.41-3-7-3-10.68s2.21-7.69,5.82-8.63" fill="#2f2e41" data-secondary="true"/>
<path d="M228.1,237.82a11.73,11.73,0,0,1,4-12.95,11.88,11.88,0,0,1,13.62.54A11.28,11.28,0,0,1,250.4,235c-.33,3.61-3.26,6.76-6.84,6.83" fill="#0071f2" data-primary="true"/>
<path d="M246.31,230.28a12.38,12.38,0,0,0-16.15.81c-4,4-4.36,12.14-3.15,17.62,1.29,5.89,4.89,11.6,3.69,17.51-.72,3.6-3.19,7.26-1.76,10.65,1.15,2.74,4.4,3.94,6.16,6.34,2.59,3.52,1.31,8.48-.43,12.5s-3.87,8.35-2.66,12.55c.94,3.26,3.69,5.61,5.88,8.2s3.94,6.23,2.48,9.29A8.66,8.66,0,0,0,254,317a10.36,10.36,0,0,1,2.91,6.66,14,14,0,0,0,10.55-21.41c-1.87-2.94-4.9-5.32-5.54-8.75-.76-4.08,2.2-8.08,1.82-12.22-.34-3.71-3.27-6.63-6.27-8.85s-6.35-4.21-8.29-7.39c-3.13-5.15-1.68-11.72-.46-17.63s1.79-12.87-2.45-17.16" fill="#2f2e41" data-secondary="true"/>
<path d="M228.4,233.89c-4.2,2.84-4.47,8.85-3.89,13.88s1.39,10.68-1.7,14.69c-2.09,2.7-5.74,4.26-6.8,7.5-1.3,4,2,7.92,2.32,12.06.27,3-1,5.91-2.43,8.54s-3.13,5.21-3.83,8.13-.2,6.38,2.13,8.28a10.76,10.76,0,0,0,5.28,1.89,65.29,65.29,0,0,0,20.22-.06c2-8.23,4-16.55,4-25,0-16.81-7.95-32.83-8.16-49.64" fill="#2f2e41" data-secondary="true"/>
<g opacity="0.2">
<path d="M253.58,319.07a3.94,3.94,0,0,1-.72-.61c-.45-.44-1.12-1.07-1.91-1.95a24.54,24.54,0,0,1-2.65-3.44,12,12,0,0,1-1.9-5.44,9.27,9.27,0,0,1,.44-3.38,18.73,18.73,0,0,1,1.57-3.3c1.23-2.14,2.75-4.4,2.83-7.13a15.13,15.13,0,0,0-2.38-8.1c-1.51-2.58-3.56-5-5.37-7.69a21.05,21.05,0,0,1-3.6-8.79,34.09,34.09,0,0,1-.15-8.83c.56-5.6,1.66-10.51,1.83-14.72a27.54,27.54,0,0,0-1-9.83c-.71-2.24-1.42-3.36-1.34-3.4a4.91,4.91,0,0,1,.51.81,14.74,14.74,0,0,1,1.12,2.49,26.57,26.57,0,0,1,1.23,10c-.11,4.26-1.15,9.22-1.67,14.75a34.52,34.52,0,0,0,.19,8.65,20.56,20.56,0,0,0,3.49,8.47c1.78,2.66,3.84,5.07,5.39,7.75a15.7,15.7,0,0,1,2.43,8.51c-.11,3-1.76,5.34-3,7.43a18.13,18.13,0,0,0-1.56,3.16,8.78,8.78,0,0,0-.46,3.16,11.65,11.65,0,0,0,1.72,5.24,26.33,26.33,0,0,0,2.5,3.46c.75.91,1.38,1.58,1.79,2A4.66,4.66,0,0,1,253.58,319.07Z" fill="#231f20"/>
</g>
<path d="M768.23,674.63c0,.22-152.69.39-341,.39s-341-.17-341-.39,152.65-.4,341-.4S768.23,674.41,768.23,674.63Z" fill="#2f2e41" data-secondary="true"/>
</svg>