<?xml version="1.0" encoding="utf-8"?><svg version="1.1" id="Layer_1" xmlns="http://www.w3.org/2000/svg" xmlns:xlink="http://www.w3.org/1999/xlink" x="0px" y="0px" viewBox="0 0 122.88 122.26" style="enable-background:new 0 0 122.88 122.26" xml:space="preserve"><style type="text/css">.st0{fill:#EC8011;} .st1{fill:#393939;}</style><g><path class="st0" d="M66.38,47.05c0.16-0.2,0.33-0.39,0.51-0.59L95.96,17.9l-7.46-0.39c-3.19-0.16-5.65-2.88-5.49-6.07 c0.16-3.19,2.88-5.65,6.07-5.49L109.84,7c2.84,0.14,5.11,2.32,5.45,5.05l0,0l2.77,21.94c0.4,3.18-1.83,6.08-5.02,6.49 c-3.18,0.4-6.08-1.83-6.49-5.02l-1.2-9.52l-29.5,30.58L66.38,47.05L66.38,47.05z"/><path class="st1" d="M33.84,50.26c4.13,7.45,8.89,14.6,15.08,21.12c6.19,6.57,13.9,12.54,23.89,17.62 c0.73,0.37,1.44,0.37,2.06,0.11c0.96-0.37,1.91-1.14,2.88-2.1c0.73-0.73,1.66-1.92,2.62-3.2c3.83-5.05,8.59-11.32,15.3-8.19 c0.15,0.07,0.26,0.15,0.41,0.22l22.36,12.87c0.07,0.04,0.15,0.11,0.22,0.15c2.95,2.02,4.17,5.15,4.21,8.7 c0,3.61-1.33,7.67-3.28,11.1c-2.58,4.53-6.38,7.52-10.76,9.51c-4.17,1.91-8.81,2.95-13.27,3.61c-7,1.03-13.56,0.37-20.28-1.7 c-6.57-2.02-13.17-5.39-20.39-9.84l-0.52-0.34c-3.31-2.06-6.9-4.28-10.4-6.9C31.11,93.31,18.03,79.3,9.51,63.89 C2.36,50.94-1.55,36.97,0.58,23.66c1.18-7.3,4.32-13.94,9.77-18.32c4.75-3.83,11.17-5.93,19.47-5.2c0.96,0.07,1.81,0.63,2.25,1.44 l14.35,24.26c2.1,2.73,2.36,5.42,1.22,8.12c-0.96,2.21-2.88,4.24-5.5,6.16c-0.77,0.66-1.7,1.33-2.66,2.02 c-3.2,2.32-6.86,5.01-5.61,8.19L33.84,50.26L33.84,50.26L33.84,50.26z"/></g></svg>