 <!DOCTYPE svg PUBLIC "-//W3C//DTD SVG 1.1//EN" "http://www.w3.org/Graphics/SVG/1.1/DTD/svg11.dtd">

<svg id="fa13f265-ac46-4512-908d-48ee6ac22344" data-name="Layer 1" xmlns="http://www.w3.org/2000/svg" width="865.76" height="682.89" viewBox="0 0 865.76 682.89">

<defs>

<style xmlns="http://www.w3.org/1999/xhtml">*, ::after, ::before { box-sizing: border-box; }
img, svg { vertical-align: middle; }
</style>

<style xmlns="http://www.w3.org/1999/xhtml">*, body, html { -webkit-font-smoothing: antialiased; }
img, svg { max-width: 100%; }
</style>

</defs>

<path d="M174.52,39.4a.23.23,0,0,1,0-.43,13.13,13.13,0,0,0,3.62-2.67,12.92,12.92,0,0,0,2.72-4.25.23.23,0,0,1,.44,0,9.57,9.57,0,0,0,3.35,4.57,9.13,9.13,0,0,0,3.24,1.5.24.24,0,0,1,0,.45,11.6,11.6,0,0,0-3.5,2.66,11.74,11.74,0,0,0-2.52,4.56.23.23,0,0,1-.44,0A12,12,0,0,0,178.79,42,11.83,11.83,0,0,0,174.52,39.4Z" fill="#fff"/>

<path d="M650.93,376.08c-22.17,73.79-85.16,179-264,186.85,0,0-161.62,12.12-226.27-165.68,0,0-19.16-49.83,16-109.09,0,0,19.16-28.73,71.23-48.49,1.8-.6,86.21-24.53,155.64-133.48,0,0,40.11-62.26,121.52-49.09,0,0,56.44,7.15,97.73,76.84h0c9.39,15.84,18,34.9,25,57.85,0,0,13.91,35.76,15.26,112.53C663,304.32,663.16,335.43,650.93,376.08Z" fill="#0071f2" data-primary="true"/>

<path d="M650.93,376.08c-22.17,73.79-85.16,179-264,186.85,0,0-161.62,12.12-226.27-165.68,0,0-19.16-49.83,16-109.09,0,0,19.16-28.73,71.23-48.49,1.8-.6,86.21-24.53,155.64-133.48,0,0,40.11-62.26,121.52-49.09,0,0,56.44,7.15,97.73,76.84h0c9.39,15.84,18,34.9,25,57.85,0,0,13.91,35.76,15.26,112.53C663,304.32,663.16,335.43,650.93,376.08Z" fill="#fff" opacity="0.5"/>

<line x1="510.44" y1="84.49" x2="529.56" y2="57.5" fill="none" stroke="#fff" stroke-miterlimit="10"/>

<line x1="538.78" y1="60.69" x2="542.67" y2="85.83" fill="none" stroke="#fff" stroke-miterlimit="10"/>

<path d="M219.05,200.87a26.63,26.63,0,0,0,1.1,12.87c2.15,6,7.15,12.67,18.79,12.36,0,0,51,1.13,91.74-71.36,0,0,24.35-41.9,7.93-89.47,0,0-5.1-14.73-24.35-6.23,0,0-21,6.79-57.2,58.33C257.06,117.37,225.9,155,219.05,200.87Z" fill="#0071f2" data-primary="true"/>

<path d="M219.05,200.87a26.63,26.63,0,0,0,1.1,12.87c2.15,6,7.15,12.67,18.79,12.36,0,0,51,1.13,91.74-71.36,0,0,24.35-41.9,7.93-89.47,0,0-5.1-14.73-24.35-6.23,0,0-21,6.79-57.2,58.33C257.06,117.37,225.9,155,219.05,200.87Z" fill="#fff" opacity="0.5"/>

<path d="M386.88,562.93S225.26,575.05,160.61,397.25c0,0-19.16-49.83,16-109.09,0,0,28.38,63.53,91.37,15.54,0,0,15.74-21,45.73,18,0,0,16.5,34.49,59.24,8.25,0,0,28.5-24,45.74-17.25,0,0,21.56,1.24,42.9,40a160.52,160.52,0,0,0,28.72,38c25.78,24.94,69.84,55.67,109.09,24.76,0,0,24-16.5,18.74-39.75,0,0-17.24-43.48,15.75-52.48,0,0,16.18-2.49,29.09-18.87C663,304.32,664.33,550.8,386.88,562.93Z" fill="#fff" opacity="0.5"/>

<path d="M622.74,133.94h0c9.39,15.84,18,34.9,25,57.85,0,0,13.91,35.76,15.26,112.53,0,0,.17,31.11-12.06,71.76l-.22.08H564.52V190.05A56,56,0,0,1,619,134Z" fill="none" stroke="#fff" stroke-miterlimit="10"/>

<line x1="564.22" y1="254.49" x2="659.84" y2="254.49" fill="none" stroke="#fff" stroke-miterlimit="10"/>

<line x1="563.77" y1="318.69" x2="662.99" y2="318.69" fill="none" stroke="#fff" stroke-miterlimit="10"/>

<path d="M370.28,265.83c0,17.44-13.68,31.58-30.56,31.58s-30.57-14.14-30.57-31.58,13.69-31.6,30.57-31.6a30,30,0,0,1,22.14,9.82,30.47,30.47,0,0,1,4.34,6A32.18,32.18,0,0,1,370.28,265.83Z" fill="#0071f2" data-primary="true"/>

<ellipse cx="324.75" cy="269.72" rx="10.26" ry="12.51" opacity="0.2"/>

<ellipse cx="363.72" cy="268.9" rx="3.28" ry="5.54" opacity="0.2"/>

<ellipse cx="365.27" cy="259.02" rx="1.73" ry="2.29" opacity="0.2"/>

<ellipse cx="350.9" cy="280.87" rx="3.05" ry="3.1" fill="#fff"/>

<ellipse cx="360.78" cy="280.27" rx="1.26" ry="1.28" opacity="0.2"/>

<ellipse cx="351.71" cy="241.17" rx="1.26" ry="1.28" opacity="0.2"/>

<ellipse cx="330.08" cy="288.59" rx="2.87" ry="3.9" opacity="0.2"/>

<path d="M366.2,250.06a3.9,3.9,0,1,1-4.34-6A30.47,30.47,0,0,1,366.2,250.06Z" fill="#fff"/>

<ellipse cx="345.87" cy="290.23" rx="2.26" ry="1.85" opacity="0.2"/>

<ellipse cx="317.74" cy="252.39" rx="1.65" ry="2.54" opacity="0.2"/>

<ellipse cx="322.53" cy="253.14" rx="1.35" ry="0.9" opacity="0.2"/>

<path d="M637.55,193.74c0,12.56-9.86,22.75-22,22.75s-22-10.19-22-22.75,9.85-22.76,22-22.76a22.07,22.07,0,0,1,19.08,11.4A23.19,23.19,0,0,1,637.55,193.74Z" fill="#0071f2" data-primary="true"/>

<ellipse cx="604.74" cy="196.54" rx="7.39" ry="9.02" opacity="0.2"/>

<ellipse cx="632.82" cy="195.95" rx="2.36" ry="3.99" opacity="0.2"/>

<ellipse cx="633.94" cy="188.84" rx="1.25" ry="1.65" opacity="0.2"/>

<ellipse cx="623.58" cy="204.58" rx="2.2" ry="2.23" opacity="0.2"/>

<ellipse cx="630.7" cy="204.15" rx="0.91" ry="0.92" opacity="0.2"/>

<ellipse cx="624.17" cy="175.97" rx="0.91" ry="0.92" opacity="0.2"/>

<ellipse cx="608.58" cy="210.14" rx="2.07" ry="2.81" opacity="0.2"/>

<path d="M634.61,182.38a2.81,2.81,0,1,1-3.13-4.33A21.73,21.73,0,0,1,634.61,182.38Z" opacity="0.2"/>

<ellipse cx="619.96" cy="211.32" rx="1.63" ry="1.33" opacity="0.2"/>

<ellipse cx="599.69" cy="184.06" rx="1.19" ry="1.83" opacity="0.2"/>

<ellipse cx="603.14" cy="184.6" rx="0.97" ry="0.65" opacity="0.2"/>

<path d="M375.09,275.21a.23.23,0,0,1,0-.43,13.31,13.31,0,0,0,3.63-2.67,13,13,0,0,0,2.71-4.25.24.24,0,0,1,.45,0,9.54,9.54,0,0,0,3.35,4.58,9.38,9.38,0,0,0,3.23,1.5.24.24,0,0,1,.05.44,11.54,11.54,0,0,0-6,7.23.24.24,0,0,1-.45,0,11.83,11.83,0,0,0-6.92-6.44Z" fill="#fff"/>

<path d="M420,279.84a.08.08,0,0,1,0-.14,4.31,4.31,0,0,0,1.2-.88,4.21,4.21,0,0,0,.9-1.41.08.08,0,0,1,.15,0,3.17,3.17,0,0,0,1.11,1.52,3.08,3.08,0,0,0,1.07.49.08.08,0,0,1,0,.15,3.84,3.84,0,0,0-1.16.88,3.78,3.78,0,0,0-.84,1.52.08.08,0,0,1-.15,0,3.86,3.86,0,0,0-.87-1.26A4.09,4.09,0,0,0,420,279.84Z" fill="#fff"/>

<path d="M374.51,225.58a.08.08,0,0,1,0-.14,4.18,4.18,0,0,0,1.2-.89,4,4,0,0,0,.9-1.41.08.08,0,0,1,.15,0,3.15,3.15,0,0,0,1.11,1.51,3,3,0,0,0,1.07.5.08.08,0,0,1,0,.15,3.87,3.87,0,0,0-2,2.39.08.08,0,0,1-.15,0,3.86,3.86,0,0,0-.87-1.26A3.8,3.8,0,0,0,374.51,225.58Z" fill="#fff"/>

<path d="M323.27,217.48a.23.23,0,0,1,0-.43,13.11,13.11,0,0,0,6.34-6.92.23.23,0,0,1,.44,0,9.54,9.54,0,0,0,3.35,4.58,9.2,9.2,0,0,0,3.23,1.5.23.23,0,0,1,.05.44,11.54,11.54,0,0,0-6,7.23.24.24,0,0,1-.45,0,11.83,11.83,0,0,0-6.92-6.44Z" fill="#fff"/>

<path d="M391.18,198.68a.11.11,0,0,1,0-.2,6,6,0,0,0,1.7-1.25,6.16,6.16,0,0,0,1.27-2,.11.11,0,0,1,.21,0,4.51,4.51,0,0,0,1.57,2.14,4.31,4.31,0,0,0,1.51.7.11.11,0,0,1,0,.21,5.33,5.33,0,0,0-1.64,1.24,5.53,5.53,0,0,0-1.18,2.14.11.11,0,0,1-.21,0,5.44,5.44,0,0,0-1.23-1.78A5.63,5.63,0,0,0,391.18,198.68Z" fill="#fff"/>

<path d="M410.54,155.31a.11.11,0,0,1,0-.2,6.57,6.57,0,0,0,1.69-1.25,6.09,6.09,0,0,0,1.27-2,.11.11,0,0,1,.21,0,4.47,4.47,0,0,0,1.57,2.14,4.36,4.36,0,0,0,1.51.71.1.1,0,0,1,0,.2,5.56,5.56,0,0,0-1.64,1.25,5.42,5.42,0,0,0-1.17,2.14.11.11,0,0,1-.21,0,5.66,5.66,0,0,0-1.24-1.78A5.55,5.55,0,0,0,410.54,155.31Z" fill="#fff"/>

<path d="M381.81,182.84a.11.11,0,0,1,0-.2,6,6,0,0,0,1.7-1.25,6.16,6.16,0,0,0,1.27-2,.11.11,0,0,1,.21,0,4.44,4.44,0,0,0,1.57,2.14,4.31,4.31,0,0,0,1.51.7.11.11,0,0,1,0,.21,5.4,5.4,0,0,0-2.82,3.38.11.11,0,0,1-.21,0,5.53,5.53,0,0,0-3.23-3Z" fill="#fff"/>

<path d="M429.69,267.85a.12.12,0,0,1,0-.21,6,6,0,0,0,1.7-1.25,6.14,6.14,0,0,0,1.27-2,.11.11,0,0,1,.21,0,4.37,4.37,0,0,0,1.56,2.14,4.5,4.5,0,0,0,1.52.71.11.11,0,0,1,0,.2,5.56,5.56,0,0,0-1.64,1.25,5.4,5.4,0,0,0-1.18,2.14.11.11,0,0,1-.21,0,5.62,5.62,0,0,0-1.24-1.79A5.42,5.42,0,0,0,429.69,267.85Z" fill="#fff"/>

<path d="M413.83,250.49a.12.12,0,0,1,0-.21,6.13,6.13,0,0,0,3-3.23.1.1,0,0,1,.2,0,4.38,4.38,0,0,0,3.09,2.85.11.11,0,0,1,0,.2,5.43,5.43,0,0,0-1.64,1.25,5.27,5.27,0,0,0-1.18,2.14.11.11,0,0,1-.21,0,5.62,5.62,0,0,0-1.24-1.79A5.5,5.5,0,0,0,413.83,250.49Z" fill="#fff"/>

<path d="M538.53,229.48a.11.11,0,0,1,0-.2,6.2,6.2,0,0,0,3-3.24.1.1,0,0,1,.2,0,4.53,4.53,0,0,0,1.57,2.15,4.27,4.27,0,0,0,1.52.7.11.11,0,0,1,0,.2,5.43,5.43,0,0,0-1.64,1.25,5.33,5.33,0,0,0-1.18,2.14.11.11,0,0,1-.21,0,5.49,5.49,0,0,0-1.24-1.78A5.55,5.55,0,0,0,538.53,229.48Z" fill="#fff"/>

<path d="M559.08,125.77A.44.44,0,0,1,559,125a24.69,24.69,0,0,0,11.94-13,.44.44,0,0,1,.83,0,17.89,17.89,0,0,0,6.31,8.62,17.31,17.31,0,0,0,6.09,2.83.44.44,0,0,1,.08.83,22.05,22.05,0,0,0-6.59,5,21.81,21.81,0,0,0-4.74,8.61.45.45,0,0,1-.85,0,22.14,22.14,0,0,0-13-12.12Z" fill="#fff"/>

<path d="M579.8,197.06a.11.11,0,0,1,0-.2,6.1,6.1,0,0,0,3-3.24.11.11,0,0,1,.21,0,4.4,4.4,0,0,0,1.57,2.15,4.31,4.31,0,0,0,1.51.7.11.11,0,0,1,0,.21,5.33,5.33,0,0,0-1.64,1.24,5.53,5.53,0,0,0-1.18,2.14.11.11,0,0,1-.21,0,5.55,5.55,0,0,0-3.23-3Z" fill="#fff"/>

<path d="M373.38,262.31a.07.07,0,0,1,0-.13,4.11,4.11,0,0,0,1.11-.82,4.17,4.17,0,0,0,.84-1.3.07.07,0,0,1,.13,0,3,3,0,0,0,1,1.4,2.76,2.76,0,0,0,1,.46.08.08,0,0,1,0,.14,3.47,3.47,0,0,0-1.08.81,3.54,3.54,0,0,0-.77,1.4.07.07,0,0,1-.14,0,3.63,3.63,0,0,0-.81-1.17A3.82,3.82,0,0,0,373.38,262.31Z" fill="#fff"/>

<circle cx="287.75" cy="255.39" r="3.54" fill="#fff"/>

<circle cx="265.47" cy="259.67" r="1.62" fill="#fff"/>

<circle cx="272.7" cy="271.92" r="1.62" fill="#fff"/>

<circle cx="295.87" cy="283.72" r="1.62" fill="#fff"/>

<circle cx="407.68" cy="220.09" r="1.62" fill="#fff"/>

<circle cx="463.95" cy="217.1" r="2.6" fill="#fff"/>

<circle cx="493.73" cy="170.63" r="2.6" fill="#fff"/>

<circle cx="448.01" cy="220.24" r="2.6" fill="#fff"/>

<circle cx="602.83" cy="371.17" r="2.6" fill="#fff"/>

<circle cx="584.27" cy="328.87" r="2.6" fill="#fff"/>

<circle cx="443.07" cy="208.79" r="1.27" fill="#fff"/>

<circle cx="474.05" cy="135.07" r="1.65" fill="#fff"/>

<circle cx="456.39" cy="136.71" r="1.65" fill="#fff"/>

<circle cx="489.69" cy="93.91" r="1.65" fill="#fff"/>

<circle cx="480.71" cy="72.66" r="1.65" fill="#fff"/>

<circle cx="468.14" cy="181.38" r="1.27" fill="#fff"/>

<circle cx="283.03" cy="274.43" r="1.62" fill="#fff"/>

<circle cx="249.08" cy="286.53" r="1.62" fill="#fff"/>

<path d="M461.41,123.62s-26.49,16.39-11.9,49.61c0,0,9.43,20.65,38.38,19.08,0,0-36,19.34-56-5.49a38.33,38.33,0,0,1-7.63-31.6C426.75,142.87,435.22,127.29,461.41,123.62Z" fill="#fff"/>

<line x1="564.52" y1="190.05" x2="647.73" y2="190.05" fill="none" stroke="#fff" stroke-miterlimit="10"/>

<line x1="622.74" y1="133.94" x2="622.74" y2="375.26" fill="none" stroke="#fff" stroke-miterlimit="10"/>

<polygon points="515.17 140.1 508.17 126.45 549.45 126.45 541.41 140.1 515.17 140.1" fill="#e6e7e8"/>

<path d="M544,117s28.34-18.19,16.09-33.23c0,0-13.29-15.75-33.93,20.29a96.62,96.62,0,0,1,.35,13.29Z" fill="#0071f2" data-primary="true"/>

<path d="M531.79,116.66c1.85-3.13,3.9-6.13,6-9.09s4.36-5.82,6.68-8.62,4.77-5.5,7.36-8.06a74.55,74.55,0,0,1,8.27-7.11c-1.31,1.26-2.68,2.44-3.93,3.75s-2.54,2.59-3.78,3.9c-2.45,2.67-4.83,5.38-7.16,8.16s-4.58,5.61-6.83,8.44c-1.13,1.42-2.23,2.86-3.33,4.3S532.89,115.22,531.79,116.66Z" fill="#2f2e41" data-secondary="true"/>

<path d="M545.08,82c.59,2.25,1,4.48,1.45,6.71.21,1.11.45,2.22.72,3.31a24.46,24.46,0,0,0,1,3.27,9.62,9.62,0,0,1-1.73-3,19.76,19.76,0,0,1-1-3.36,28.28,28.28,0,0,1-.47-3.43A20.11,20.11,0,0,1,545.08,82Z" fill="#2f2e41" data-secondary="true"/>

<path d="M537,109.31c3.15-.64,6.3-1,9.45-1.47l4.73-.6c1.57-.22,3.14-.4,4.71-.72a21.62,21.62,0,0,1-4.57,1.49c-1.57.35-3.15.61-4.74.82A57.77,57.77,0,0,1,537,109.31Z" fill="#2f2e41" data-secondary="true"/>

<path d="M526.19,104.07l3.91-6.57s2.39,12-1.5,19.46l-2.06.4Z" opacity="0.2"/>

<path d="M514.3,117.36s-15.4-37.08-2.1-45.48c0,0,15.39-4.19,14.34,45.48Z" fill="#0071f2" data-primary="true"/>

<path d="M513.34,105.88a25.73,25.73,0,0,1,3.87,3.72,24.39,24.39,0,0,1,3.12,4.37,25.27,25.27,0,0,1-3.87-3.72A24.75,24.75,0,0,1,513.34,105.88Z" fill="#2f2e41" data-secondary="true"/>

<path d="M513.93,78.05c.84,3.27,1.56,6.56,2.25,9.86s1.33,6.6,1.94,9.91,1.17,6.64,1.64,10a84.49,84.49,0,0,1,1.06,10.06c-.2-1.68-.55-3.32-.86-5l-1-4.95c-.65-3.31-1.25-6.62-1.86-9.93s-1.18-6.63-1.71-10S514.36,81.4,513.93,78.05Z" fill="#2f2e41" data-secondary="true"/>

<path d="M523.51,93.61a12.5,12.5,0,0,1-2.69,2.65,12.9,12.9,0,0,1-3.29,1.84,12.69,12.69,0,0,1,2.69-2.64A12.93,12.93,0,0,1,523.51,93.61Z" fill="#2f2e41" data-secondary="true"/>

<rect x="504.85" y="117.01" width="47.93" height="11.89" rx="5.68" fill="#fff"/>

<rect x="648.69" y="496.84" width="2.09" height="155.24" transform="translate(-217.53 573.35) rotate(-41.41)" fill="#bcbec0"/>

<path d="M607.25,631.76v-2.09a1.06,1.06,0,0,0-.52.14c3.11-2.26,73.91-83.24,100.93-114.26l1.58,1.38c-.25.29-25.22,29-50,57.24C608.64,631.76,608,631.76,607.25,631.76Z" fill="#bcbec0"/>

<rect x="594.36" y="571.2" width="118.62" height="2.1" transform="translate(-43.58 1090.51) rotate(-77.82)" fill="#bcbec0"/>

<path d="M708.38,473.62c-.31,5.88-5.34,12.25-13,15.72-9.8,4.4-20.25,2.41-23.32-4.43s2.38-16,12.2-20.38c9.53-4.27,19.65-2.51,23,3.87a5.21,5.21,0,0,1,.3.57A10,10,0,0,1,708.38,473.62Z" fill="#2f2e41" data-secondary="true"/>

<path d="M321,531.55s-52.68-38.91-29.33-74.23c0,0,13.17-16.16,33.52-7.78L464.31,347.06A130.44,130.44,0,0,0,476.38,337l38-35.89,32.33,2.39s39.5-2.39,34.12,53.87c0,0-1.8,55.08,16.16,92.19,0,0,24.54,31.13-9.58,54.47,0,0,1.38,86.93-66.45,84.41,0,0-11.94,5.21-30.49,1.62l-120.95-3.42S300.05,586,321,531.55Z" fill="#d1d3d4"/>

<path d="M328.18,523.86a12,12,0,0,1,2.93-3.51,25.8,25.8,0,0,1,3.75-2.67,46.21,46.21,0,0,1,8.31-3.82c1.45-.48,2.9-.92,4.36-1.33s2.94-.75,4.43-1,3-.54,4.48-.72,3-.32,4.53-.39c-1.44.51-2.88.92-4.32,1.35L352.34,513c-2.86.88-5.71,1.74-8.51,2.72-1.4.49-2.8,1-4.16,1.55-.7.25-1.38.53-2.05.84s-1.37.57-2,.91-1.34.63-2,1-1.3.71-1.93,1.09A16.41,16.41,0,0,0,328.18,523.86Z" fill="#bcbec0"/>

<path d="M343.74,522.18q18.09,0,36.17.48c12.06.26,24.11.64,36.16,1s24.1.9,36.14,1.48,24.09,1.23,36.12,2q-18.09,0-36.17-.48c-12.06-.26-24.11-.64-36.16-1s-24.1-.9-36.14-1.48S355.77,523,343.74,522.18Z" fill="#bcbec0"/>

<path d="M558.53,460.39a40.44,40.44,0,0,1,10-5,45.7,45.7,0,0,1,11-2.33,35.91,35.91,0,0,1,11.23.77l2.73.72c.88.33,1.75.69,2.62,1l1.29.55,1.22.69c.81.47,1.61.94,2.4,1.43-.89-.3-1.76-.61-2.62-.92l-1.29-.48-1.33-.34-2.63-.7-2.68-.44a22,22,0,0,0-2.68-.31,27,27,0,0,0-2.7-.17l-2.7,0c-.9,0-1.8.12-2.7.18a63.17,63.17,0,0,0-10.7,1.83A81.73,81.73,0,0,0,558.53,460.39Z" fill="#bcbec0"/>

<path d="M452.26,315.66A34.43,34.43,0,0,1,459.47,298l4.37,6.33.28,6.45a5.66,5.66,0,0,0-1.86,7s-1.27,2.46-2.09,4.18Z" fill="#2f2e41" data-secondary="true"/>

<path d="M447.61,426s-29.93,6.59-36.52-10.17c0,0-8.08-44.9,18.86-77.52,0,0,17.4-14.85,22.31-22.69l7.91,6.27,2.09-4.18s-2.88-4.91,1.86-7l-.28-5.55L466,306a7.39,7.39,0,0,0,7,6.06s12.2,2.39,19.31-12.12c0,0,6.16.2,4.26,8.3,0,0,4,3.52,4,7L522,329.36s18.39,14.38,23.18,28.44c0,0,21.85,37.72,15.86,50.88a12.64,12.64,0,0,0,.25,4.27,6.85,6.85,0,0,0,2.61,3.82c1.47,1.13,3.33,4.39,1.33,13.76,0,0-.9,8.68-8.08,11.68,0,0,2.1-19.76-7.48-27.84l-25.44-15.86-9.85-21.39a7.55,7.55,0,0,0-2.29-2.9c-1.21-.91-2.48-1.24-1.48,2.51a7.87,7.87,0,0,0,.36,1l2.87,6.63a9.12,9.12,0,0,1,0,7.21,32.42,32.42,0,0,0-1.34,21.87l-27.53,26S464.43,425.44,447.61,426Z" fill="#0071f2" data-primary="true"/>

<path d="M466,306s.45,7.63,11.9,6.06a19.67,19.67,0,0,0,14.59-12.8L497,287.77,488,281Z" fill="#f9b499"/>

<ellipse cx="475.41" cy="278.01" rx="29.63" ry="20.78" transform="translate(18.18 585.01) rotate(-64.2)" fill="#f9b499"/>

<path d="M466,306s.9,6.06,7,6.06c0,0,6.06-2.25,12.35-12.8C485.32,299.21,475.89,308,466,306Z" fill="#f7a48b"/>

<path d="M458.78,265.09s-10.08-9.38,4.51-20.84c0,0,10.42-9,21.19-1.39,0,0,3.48-13.55,12.16-7,0,0,7,4.74,10.23,28.7a4.93,4.93,0,0,0,1.16,2.61,132.56,132.56,0,0,1,15.85,23.51,52.92,52.92,0,0,1,5.6,16.68c1,6.13,1.54,13.81-.53,18.13,0,0-1.39-28.14-7.64-34,0,0,7,23.27.69,37.86,0,0-14.46-9.49-21.42-14.21a13.8,13.8,0,0,0-4-7s2-7-4.26-8.3L497,287.77l-2.24-2s1.12-17.29-2.7-21.78c0,0-.67-2.24-6.28-2.47,0,0-2.39.86-4.64-3.54a7.27,7.27,0,0,0-7.91-3.86C469.71,254.84,464.88,257.6,458.78,265.09Z" fill="#2f2e41" data-secondary="true"/>

<path d="M504.62,252.3s5.66-11.13,14.56-2.26a21.2,21.2,0,0,1,4,5.66c3.1,6.26,8.72,21.16-7.76,21.52l-7.37-10a3.08,3.08,0,0,1-1.16-2.61Z" fill="#2f2e41" data-secondary="true"/>

<path d="M451.2,360.5s9.57,7.78,7.48,12.57c0,0-1.2,2.39-9-1.2Z" fill="#0071f2" data-primary="true"/>

<path d="M451.2,360.5s9.57,7.78,7.48,12.57c0,0-2.31,3.15-9-1.2Z" opacity="0.4"/>

<g opacity="0.2">

<path d="M470.65,324.58c1.38.07,2.76.12,4.14.09s2.74,0,4.11-.12a51.22,51.22,0,0,0,8.11-1.12,27.63,27.63,0,0,0,3.9-1.13,23.71,23.71,0,0,0,3.7-1.68,17.45,17.45,0,0,0,6-5.47,15.1,15.1,0,0,1-2.34,3.45,17.44,17.44,0,0,1-3.24,2.68,24.08,24.08,0,0,1-7.77,3.13,38.09,38.09,0,0,1-8.3.9A41,41,0,0,1,470.65,324.58Z"/>

</g>

<g opacity="0.2">

<path d="M488.91,315a33.16,33.16,0,0,0,4.12-3.07,21.48,21.48,0,0,0,1.81-1.76c.59-.62,1.11-1.3,1.7-2a7.8,7.8,0,0,1-1.08,2.45,9.59,9.59,0,0,1-1.77,2,10.18,10.18,0,0,1-2.23,1.51A7.68,7.68,0,0,1,488.91,315Z"/>

</g>

<g opacity="0.2">

<path d="M430,338.35a47.07,47.07,0,0,1,4,8.81,42.51,42.51,0,0,1,2.24,9.45c-1.11-3.05-2.1-6.09-3.18-9.12S430.92,341.44,430,338.35Z"/>

</g>

<g opacity="0.2">

<path d="M512,370.37c1.08-3,2.37-6,3.72-8.89s2.86-5.77,4.46-8.56a70.78,70.78,0,0,1,5.33-8.07,28.5,28.5,0,0,1,6.84-6.8l-1.76,1.64L529,341.48c-1,1.24-2,2.49-2.87,3.82-1.8,2.63-3.51,5.33-5.09,8.12s-3.13,5.57-4.63,8.4q-1.12,2.13-2.22,4.27Z"/>

</g>

<path d="M427.6,437.52c-.88.21,50.56,5.22,50.56,5.22l-38.65,39.79S465.56,492.19,482,497c0,0,3.59,2.69,9.57-2.1,0,0,2.7-6,23-.29A214.77,214.77,0,0,1,541.06,471a39.78,39.78,0,0,0,13.4-16.84,32.23,32.23,0,0,0,2.69-12s2.1-20.36-7.48-27.84c0,0-21.85-10.77-39.81,0L485,439.51s-19.76-16.46-41.9-13.17C443.12,426.34,442.82,433.83,427.6,437.52Z" fill="#2f2e41" data-secondary="true"/>

<path d="M427.6,437.52c-.88.21,50.56,5.22,50.56,5.22l-38.65,39.79S465.56,492.19,482,497c0,0,3.59,2.69,9.57-2.1,0,0,2.7-6,23-.29A214.77,214.77,0,0,1,541.06,471a39.78,39.78,0,0,0,13.4-16.84,32.23,32.23,0,0,0,2.69-12s2.1-20.36-7.48-27.84c0,0-21.85-10.77-39.81,0L485,439.51s-19.76-16.46-41.9-13.17C443.12,426.34,442.82,433.83,427.6,437.52Z" opacity="0.2"/>

<g opacity="0.2">

<path d="M449.7,439.51a13.48,13.48,0,0,1,.41-7.67,14.52,14.52,0,0,1,.78-1.81,11.87,11.87,0,0,1,1.06-1.65,10.61,10.61,0,0,1,2.84-2.63,23.24,23.24,0,0,0-2.19,3.06,16.9,16.9,0,0,0-1.54,3.35,22,22,0,0,0-.94,3.59A30.89,30.89,0,0,0,449.7,439.51Z"/>

</g>

<g opacity="0.2">

<path d="M464.07,428.44a41.77,41.77,0,0,1-4.79,12,41.77,41.77,0,0,1,4.79-12Z"/>

</g>

<path d="M521.23,411.68s-5.08,8.68.6,9.87c0,0-1.49,8.09,6.29,4.79a8.54,8.54,0,0,0,8.68-2.09s3,1.79,6.88-.6l7.19-9.28s2.09-3.89-2.7-5.39c0,0,1.2-5.38-5.09-5.68,0,0-.3-6.59-7.78-4.49,0,0-4.19-6.59-12.87,1.2,0,0-6.88,6.58-10.47,9.87C512,409.88,506.57,415.57,521.23,411.68Z" fill="#f9b499"/>

<path d="M522.73,419.16a42.67,42.67,0,0,1,7.18-10.77,42,42,0,0,1-7.18,10.77Z" fill="#f7a48b"/>

<path d="M523.33,406a8.63,8.63,0,0,1-.58,3,8.22,8.22,0,0,1-1.52,2.67,9.42,9.42,0,0,1,2.1-5.69Z" fill="#f7a48b"/>

<path d="M529.61,422.75a60.29,60.29,0,0,1,4.39-7,59.07,59.07,0,0,1,5.19-6.45,59,59,0,0,1-4.38,7A60.27,60.27,0,0,1,529.61,422.75Z" fill="#f7a48b"/>

<path d="M538,422.15a21.54,21.54,0,0,1,4.48-8.08,19.36,19.36,0,0,1-1.8,4.29A19.73,19.73,0,0,1,538,422.15Z" fill="#f7a48b"/>

<path d="M439.82,482.31s-28.53-26.65-60.06-32.75c0,0-49.46-20.76-64.18-3.77a31.12,31.12,0,0,0-7.64,25.64,34.22,34.22,0,0,0,16.61,24.25c7.57,4.49,21,11.61,44.64,22.22,0,0,46.82,20,67.2,22.27,0,0,4.91-44.92,21.14-51.34Z" fill="#2f2e41" data-secondary="true"/>

<path d="M384.67,454.09s16.23,7.55,18.88,15.86" fill="none" stroke="#000" stroke-miterlimit="10" opacity="0.2"/>

<path d="M436.39,540.17s10.2,0,15.1-25.29l-10.94.37S438.28,525.07,436.39,540.17Z" fill="#2f2e41" data-secondary="true"/>

<path d="M436.39,540.17s10.2,0,15.1-25.29l-10.94.37S438.28,525.07,436.39,540.17Z" opacity="0.2"/>

<path d="M473.77,447.68l-51.72,6.79-42.29-4.91s25.74,4.34,60.06,32.75Z" fill="#2f2e41" data-secondary="true"/>

<path d="M473.77,447.68l-51.72,6.79-42.29-4.91s25.74,4.34,60.06,32.75Z" opacity="0.4"/>

<path d="M420.91,450.32c1.14,0,58.42-8.11,58.42-8.11l-51.73-4.69S421,438.67,416.41,432Z" fill="#0071f2" data-primary="true"/>

<path d="M420.91,450.32c1.14,0,58.42-8.11,58.42-8.11l-51.73-4.69S421,438.67,416.41,432Z" opacity="0.4"/>

<polygon points="422.05 454.47 420.91 450.32 479.33 442.21 473.77 447.68 422.05 454.47" fill="#0071f2" data-primary="true"/>

<path d="M507.56,492.69s24.44-18.22,38.21-33.32" fill="none" stroke="#000" stroke-miterlimit="10" opacity="0.2"/>

<path d="M457.53,488.83,482,497a8.86,8.86,0,0,0,9.57-2.1c4.65-6.37,23-.29,23-.29-11.57,7.22-12,24.32-12,24.32-15.1-3.56-63.53,1.77-63.53,1.77C440.47,520.68,443.6,494.58,457.53,488.83Z" fill="#f9b499"/>

<path d="M593.07,495.18,586.48,494c-6.4,2.63-16.12,11.43-22.45,17.59a32.85,32.85,0,0,0-8.43,13.81c-12,38.79-30.74,54.67-37.35,59.26a10.55,10.55,0,0,1-5.13,1.87C487,588.78,356,579.14,356,579.14l-3.14,5.39c14.36,1.79,38.16,3.14,38.16,3.14-7.19,18-10.78,50.28-10.78,50.28h9c-.9-18.41,9.88-49.83,9.88-49.83,46.24,5.83,111.94,3.74,111.94,3.74,12.27,15.26,18.26,50.28,18.26,50.28h7.78c-.6-20.95-16.76-49.68-16.76-49.68l6-4.19c18.56,1.49,29-4.79,29-4.79,11.08,11.37,19.46,53,19.46,53h8.38c-5.39-34.72-20.05-55.68-20.05-55.68C588.88,565.82,593.07,495.18,593.07,495.18Zm-55.2,84.63a1,1,0,0,1-.65-1.57c4.22-5.07,18.89-24.42,28.55-59a12,12,0,0,1,5.55-7.2l11.85-6.86a.58.58,0,0,1,.87.53C583.54,515.07,578.49,583.83,537.87,579.81Z" fill="#bcbec0"/>

<path d="M501.78,528.9s-.42,14.3,23.54,14.3l25.65-.43" fill="none" stroke="#bcbec0" stroke-miterlimit="10" strokeWidth="2"/>

<path d="M510.19,534.37a90.27,90.27,0,0,1,31.95-18.92s20.59-10.09,32.78-25.64c0,0,17.66-21.86,29.85-16" fill="none" stroke="#bcbec0" stroke-miterlimit="10" strokeWidth="2"/>

<path d="M178.17,639a3.51,3.51,0,0,1-2.37-3.43c.28-11.86,2.25-61.33,15-62.81,0,0,25.13-8.93,73.16-7.82,0,0,80.42-.55,104.44,15.64a199.13,199.13,0,0,1,5.89,56.85,6,6,0,0,1-5.62,5.62C341.32,644.68,215,651.28,178.17,639Z" fill="#0071f2" data-primary="true"/>

<path d="M190.43,579.16c7,1.41,14.07,2.53,21.14,3.53,3.53.51,7.08.94,10.62,1.42l10.64,1.2c14.21,1.45,28.47,2.36,42.75,2.65l5.35.12c1.78,0,3.57.09,5.35,0L297,588c1.78,0,3.57-.09,5.35-.17l5.35-.23,5.35-.23c1.78-.07,3.56-.26,5.34-.38l10.67-.83,10.64-1.27,5.32-.61,5.29-.87,10.57-1.73-10.53,2-5.27,1-5.31.74-10.64,1.42-10.68,1c-1.79.15-3.56.36-5.35.45l-5.36.26-5.36.26c-1.78.08-3.57.2-5.36.2l-10.73.14c-1.79,0-3.58,0-5.36,0l-5.37-.1c-14.3-.38-28.59-1.28-42.8-2.91A408.72,408.72,0,0,1,190.43,579.16Z" opacity="0.2"/>

<ellipse cx="271.76" cy="580.79" rx="60.95" ry="4.89" opacity="0.2"/>

<path d="M218.74,564.29s-7.49-17.16-3.44-18.72l18.72,7.8,6.87-1.24s31.2-28.4,62.09-20.91c0,0,28.08,5.93,30.58,29,0,0,17.16,4.37,11.85,21.84,0,0-.62,8.42-18.72,16.85,0,0-10.61,6.24-12.48,18.41,0,0-2.49,17.47-14.35,17.16,0,0-12.79-5-5.93-24,0,0,2.81-16.53,26.52-22.15,0,0,29-7.49,15.29-19.66,0,0-1.81,20.26-43.24,14.05a4.27,4.27,0,0,0-3.5,1l-2.24,2.06L268,585.2l-11.54-1.87s-15.29,8.73-35.26-1.56C221.23,581.77,203.76,576.15,218.74,564.29Z" fill="#2f2e41" data-secondary="true"/>

<path d="M234,553.37a38.35,38.35,0,0,1,8.09-1.24,31.33,31.33,0,0,1,4.11.06,12.38,12.38,0,0,1,4,.87,30.44,30.44,0,0,0-4.05-.06c-1.34.06-2.69.1-4,.18C239.47,553.3,236.77,553.45,234,553.37Z" fill="#2f2e41" data-secondary="true"/>

<path d="M234,553.37a38.35,38.35,0,0,1,8.09-1.24,31.33,31.33,0,0,1,4.11.06,12.38,12.38,0,0,1,4,.87,30.44,30.44,0,0,0-4.05-.06c-1.34.06-2.69.1-4,.18C239.47,553.3,236.77,553.45,234,553.37Z" opacity="0.2"/>

<path d="M256.55,583.85l-.12-1a25.72,25.72,0,0,0,11.44-4.22,9.66,9.66,0,0,0,4-9.9c-2.08-9.58-12.26-22.35-12.37-22.48l-.05-.09c-1.48-2.89-2.89-4.33-4.07-4.11-3.21.56-5.32,11.59-5.87,15.8l-1-.14c.21-1.62,2.19-15.91,6.73-16.69,1.72-.3,3.41,1.21,5.15,4.62.77.95,10.45,13.23,12.55,22.87a10.74,10.74,0,0,1-4.45,11A26.73,26.73,0,0,1,256.55,583.85Z" fill="#2f2e41" data-secondary="true"/>

<g opacity="0.2">

<path d="M256.55,583.85l-.12-1a25.72,25.72,0,0,0,11.44-4.22,9.66,9.66,0,0,0,4-9.9c-2.08-9.58-12.26-22.35-12.37-22.48l-.05-.09c-1.48-2.89-2.89-4.33-4.07-4.11-3.21.56-5.32,11.59-5.87,15.8l-1-.14c.21-1.62,2.19-15.91,6.73-16.69,1.72-.3,3.41,1.21,5.15,4.62.77.95,10.45,13.23,12.55,22.87a10.74,10.74,0,0,1-4.45,11A26.73,26.73,0,0,1,256.55,583.85Z"/>

</g>

<path d="M284,563.05s10.92-4.06,15.91,1.56L291.44,573s-2.76,1.47-3.1-1.73C288.34,571.3,287.38,565.23,284,563.05Z" fill="#e6e7e8"/>

<path d="M347.82,590.49c.66,1.75,1.17,3.55,1.7,5.34s.92,3.62,1.33,5.44c.82,3.65,1.45,7.34,1.92,11.05s.8,7.44.89,11.17c.08,1.87.07,3.74.07,5.61s-.14,3.73-.25,5.59c-.18-3.73-.3-7.45-.62-11.15s-.66-7.4-1.13-11.09-1-7.35-1.67-11S348.68,594.12,347.82,590.49Z" opacity="0.2"/>

<rect x="586.48" y="493.99" width="137.2" height="24.71" fill="#2f2e41" data-secondary="true"/>

<path d="M616.09,455.81l-.19-2.43a1.77,1.77,0,0,1,1.76-1.91l33.48-.07a1.77,1.77,0,0,1,1.78,1.79c-.13,7.68-1.07,37.52-8.34,40.94L622.37,494s-3.83-1.78-3.83-8.17c0,0-6.62-2.87-8.41-18.43C610.13,467.35,608,454.16,616.09,455.81Z" fill="#0071f2" data-primary="true"/>

<path d="M615.22,462.86l.22,3.62c.1,1.2.19,2.39.33,3.58s.27,2.38.44,3.57.36,2.37.5,3.6a21.45,21.45,0,0,1-1.94-7.06,23.79,23.79,0,0,1-.1-3.68A15.4,15.4,0,0,1,615.22,462.86Z" fill="#2f2e41" data-secondary="true"/>

<ellipse cx="682.06" cy="477.27" rx="19.46" ry="13.59" transform="translate(-135.63 321.14) rotate(-24.17)" fill="#2f2e41" data-secondary="true"/>

<ellipse cx="682.06" cy="477.27" rx="19.46" ry="13.59" transform="translate(-135.63 321.14) rotate(-24.17)" opacity="0.2"/>

<path d="M708.38,473.62a2.45,2.45,0,0,1-.81.13,2.68,2.68,0,0,1-.33-5.35,5.21,5.21,0,0,1,.3.57A10,10,0,0,1,708.38,473.62Z" opacity="0.2"/>

<ellipse cx="499.41" cy="284.56" rx="8.14" ry="6.05" transform="translate(-74.02 324.13) rotate(-33.62)" fill="#f9b499"/>

<path d="M432,356l6-18.26s3-21.55,5.68-25.74l6.59-15.26s6.58.59.3,14.06c0,0-3.89,7.49-.6,6.59,0,0,3.29-4.19,6-1.5a14.15,14.15,0,0,0,5.74,3.89,5.29,5.29,0,0,1,2.17,1.46c.92,1.09-3.75,4.32-.73,4.83,1.8.3,5.39.89,3.29,4.79,0,0-1.2,3-6,.59,0,0,4.78,9.28-3.6,6.29,0,0-.3,4.79-3,6L451.2,360.5l-1.5,11.37S435.93,365.59,432,356Z" fill="#f9b499"/>

<path d="M449.7,335.36a28,28,0,0,1,2.64-3.62l.52-.61.29.79a21.87,21.87,0,0,0,1.46,3.19,7,7,0,0,0,2.27,2.64,3.61,3.61,0,0,1-1.71-.78,6.59,6.59,0,0,1-1.3-1.39,10.1,10.1,0,0,1-.95-1.62,11.66,11.66,0,0,1-.68-1.76l.8.18A27.21,27.21,0,0,1,449.7,335.36Z" fill="#f7a48b"/>

<path d="M450.3,328.17a31.05,31.05,0,0,1,3.37-2.48l.33-.22.27.38A23,23,0,0,0,457,329a18.86,18.86,0,0,0,1.61,1.35,12.13,12.13,0,0,0,1.87,1.07,7.2,7.2,0,0,1-4.08-1.74,13.18,13.18,0,0,1-1.6-1.57,13.45,13.45,0,0,1-1.29-1.84l.6.15A29.69,29.69,0,0,1,450.3,328.17Z" fill="#f7a48b"/>

<path d="M447.61,323.08c1.13-1,2.31-2,3.52-2.89a4.58,4.58,0,0,1,.51-.37,1.6,1.6,0,0,1,.75-.18,1.57,1.57,0,0,1,.76.23c.26.17.33.25.5.37.59.47,1.18.93,1.78,1.37q1.8,1.35,3.69,2.54a16.94,16.94,0,0,0,4.05,1.93,10.89,10.89,0,0,1-4.42-1.24,25.3,25.3,0,0,1-3.91-2.43c-.61-.46-1.21-.94-1.79-1.44-.34-.29-.46-.44-.7-.45s-.41.08-.78.31C450.28,321.63,449,322.39,447.61,323.08Z" fill="#f7a48b"/>

<path d="M432.25,356a.57.57,0,0,0-1.06,0c-3.39,9.21-21.07,58.32-17.25,71.28a6.84,6.84,0,0,0,.44,1.16c4,8,8,9.73,13.22,9.08a22.15,22.15,0,0,0,15.83-10.07A24.68,24.68,0,0,0,447,409s-5.13-11.66,3-14.36c.9-.3,6.58-9.28,8.68-21.55,0,0-3.29,2.39-9-1.2C449.7,371.87,436,365.13,432.25,356Z" fill="#0071f2" data-primary="true"/>

<path d="M432.27,356.05a.59.59,0,0,0-1.1,0c-3.44,9.34-21,58.28-17.23,71.22a6.84,6.84,0,0,0,.44,1.16c4,8,8,9.73,13.22,9.08a22.15,22.15,0,0,0,15.83-10.07A24.68,24.68,0,0,0,447,409s-5.13-11.66,3-14.36c.9-.3,6.58-9.28,8.68-21.55,0,0-3.29,2.39-9-1.2C449.7,371.87,436,365.15,432.27,356.05Z" opacity="0.2"/>

<path d="M330.68,439,307.3,368.13a2.41,2.41,0,0,1,2.52-3.15l85.78,8.48a8.65,8.65,0,0,1,7.55,6.49l18.9,74.52-42.29-4.91A118.71,118.71,0,0,0,330.68,439Z" fill="#0071f2" data-primary="true"/>

<path d="M330.68,439,307.3,368.13a2.41,2.41,0,0,1,2.52-3.15l85.78,8.48a8.65,8.65,0,0,1,7.55,6.49l18.9,74.52-42.29-4.91A118.71,118.71,0,0,0,330.68,439Z" fill="#fff" opacity="0.5"/>

<path d="M275.53,585.3a7.63,7.63,0,0,1,1.3-6c2.07-2.87,5.82-4.31,8.4-4.67a3,3,0,0,0,2.58-3.24c-.61-6.39-11.26-15-11.37-15.07l.66-.82c.45.36,11.1,9,11.76,15.79a4,4,0,0,1-3.48,4.38c-2.57.36-5.94,1.81-7.7,4.25a6.57,6.57,0,0,0-1.12,5.23Z" fill="#2f2e41" data-secondary="true"/>

<g opacity="0.2">

<path d="M275.53,585.3a7.63,7.63,0,0,1,1.3-6c2.07-2.87,5.82-4.31,8.4-4.67a3,3,0,0,0,2.58-3.24c-.61-6.39-11.26-15-11.37-15.07l.66-.82c.45.36,11.1,9,11.76,15.79a4,4,0,0,1-3.48,4.38c-2.57.36-5.94,1.81-7.7,4.25a6.57,6.57,0,0,0-1.12,5.23Z"/>

</g>

<path d="M277.81,579.78l-.21-1c10.24-2.11,13.39-6,13.42-6C304.74,557.43,313.16,556,313.51,556l.16,1c-.09,0-8.45,1.45-21.84,16.37C291.72,573.52,288.49,577.59,277.81,579.78Z" fill="#2f2e41" data-secondary="true"/>

<g opacity="0.2">

<path d="M277.81,579.78l-.21-1c10.24-2.11,13.39-6,13.42-6C304.74,557.43,313.16,556,313.51,556l.16,1c-.09,0-8.45,1.45-21.84,16.37C291.72,573.52,288.49,577.59,277.81,579.78Z"/>

</g>

<ellipse cx="281.55" cy="583.47" rx="5.77" ry="5.17" transform="translate(-162.29 111.54) rotate(-17.48)" fill="#e6e7e8"/>

<ellipse cx="678.7" cy="477.61" rx="19.46" ry="13.59" transform="translate(-136.06 319.79) rotate(-24.17)" fill="#2f2e41" data-secondary="true"/>

<ellipse cx="690.95" cy="477.61" rx="1.51" ry="2.18" opacity="0.2"/>

<ellipse cx="683.23" cy="467.37" rx="1.85" ry="3.02" opacity="0.2"/>

<circle cx="669.64" cy="481.47" r="2.68" opacity="0.2"/>

<path d="M656.56,481.47h52.68a0,0,0,0,1,0,0V486a7.85,7.85,0,0,1-7.85,7.85h-37a7.85,7.85,0,0,1-7.85-7.85v-4.57A0,0,0,0,1,656.56,481.47Z" fill="#0071f2" data-primary="true"/>

</svg>
